<?xml version="1.0" encoding="UTF-8" standalone="no"?>
<!-- Created with Inkscape (http://www.inkscape.org/) -->

<svg
   xmlns:svg="http://www.w3.org/2000/svg"
   xmlns="http://www.w3.org/2000/svg"
   version="1.1"
   width="147.36729"
   height="74.699203"
   id="svg2840">
  <defs
     id="defs2858" />
  <g
     transform="translate(-21.9097,-49.6988)"
     id="g2842">
    <g
       id="g2844">
      <path
         d="m 121.687,49.6988 47.59,37.3494 -47.59,37.3498 0,-16.868 -34.3376,0 2.4691,-9.3826 -4.6913,-10.8176 4.1975,-10.1234 -1.9753,-10.6401 34.4456,0 z"
         id="path2846"
         style="stroke-width:3" />
      <path
         d="m 66.6214,65.7249 7.499,0 3.2466,9.3151 -5.584,11.7664 5.9671,11.7665 -3.5435,8.5801 -7.9423,0 4.978,-8.8832 -5.833,-11.5213 5.4055,-11.7085 z"
         id="path2848"
         style="stroke-width:3" />
      <path
         d="m 48.9246,65.801 4.6775,0 2.4061,9.3151 -4.2062,11.7665 4.2561,11.7664 -2.4023,8.579 -4.954,0 3.9032,-8.579 -4.5895,-11.5213 4.0948,-12.0116 z"
         id="path2850"
         style="stroke-width:3" />
      <path
         d="m 34.0252,65.6192 3.298,0 2.6337,9.3827 -4.171,11.8519 3.8662,11.8518 -2.291,8.6414 -3.4929,0 2.1655,-8.6414 -3.2206,-11.6049 3.9051,-12.0988 z"
         id="path2852"
         style="stroke-width:3" />
      <path
         d="m 21.9097,65.5139 1.2399,0 -0.01,9.5143 -0.0131,11.7203 0.0058,11.8518 0.0346,8.5097 -1.1972,0 0.0463,-8.3781 -0.1063,-11.7365 0.0105,-11.9672 z"
         id="path2854"
         style="stroke-width:3" />
    </g>
  </g>
</svg>
