<?xml version="1.0" encoding="utf-8"?>
<!-- Generator: Adobe Illustrator 15.0.0, SVG Export Plug-In . SVG Version: 6.00 Build 0)  -->
<!DOCTYPE svg PUBLIC "-//W3C//DTD SVG 1.1//EN" "http://www.w3.org/Graphics/SVG/1.1/DTD/svg11.dtd">
<svg version="1.1" id="Layer_1" xmlns:svg="http://www.w3.org/2000/svg"
	 xmlns="http://www.w3.org/2000/svg" xmlns:xlink="http://www.w3.org/1999/xlink" x="0px" y="0px" width="477.719px"
	 height="119.471px" viewBox="0 0 477.719 119.471" enable-background="new 0 0 477.719 119.471" xml:space="preserve">
<path id="bgColor00" fill="#D85B07" d="M477.368,104.747c0,7.998-6.439,14.479-14.383,14.479H14.058
	c-7.946,0-14.386-6.479-14.386-14.479V14.245c0-7.998,6.44-14.481,14.386-14.481h448.927c7.94,0,14.383,6.482,14.383,14.481v90.504
	V104.747z"/>
<linearGradient id="path4184_1_" gradientUnits="userSpaceOnUse" x1="630.1758" y1="792.2952" x2="155.1073" y2="792.2952" gradientTransform="matrix(1 0 0 1 -153.4902 -732.7988)">
	<stop  offset="0" style="stop-color:#000000;stop-opacity:0.8"/>
	<stop  offset="0.0182" style="stop-color:#000000;stop-opacity:0"/>
	<stop  offset="0.9879" style="stop-color:#FFFFFF;stop-opacity:0"/>
	<stop  offset="1" style="stop-color:#FFFFFF;stop-opacity:0.65"/>
</linearGradient>
<path id="path4184" opacity="0.6" fill="url(#path4184_1_)" enable-background="new    " d="M477.367,104.748
	c0,7.998-6.439,14.479-14.383,14.479H14.057c-7.945,0-14.385-6.479-14.385-14.479V14.246c0-7.996,6.439-14.482,14.385-14.482
	h448.927c7.942,0,14.383,6.484,14.383,14.482v90.504V104.748z"/>
<linearGradient id="path4173_1_" gradientUnits="userSpaceOnUse" x1="392.3506" y1="850.3821" x2="392.3506" y2="733.3496" gradientTransform="matrix(1 0 0 1 -153.4902 -732.7988)">
	<stop  offset="0" style="stop-color:#000000;stop-opacity:0.8"/>
	<stop  offset="0.0727" style="stop-color:#000000;stop-opacity:0"/>
	<stop  offset="0.9394" style="stop-color:#FFFFFF;stop-opacity:0"/>
	<stop  offset="1" style="stop-color:#FFFFFF;stop-opacity:0.65"/>
</linearGradient>
<path id="path4173" opacity="0.6" fill="url(#path4173_1_)" enable-background="new    " d="M477.708,104.747
	c0,7.998-6.439,14.479-14.383,14.479H14.398c-7.945,0-14.385-6.479-14.385-14.479V14.245c0-7.997,6.439-14.481,14.385-14.481
	h448.927c7.94,0,14.383,6.482,14.383,14.481v90.504V104.747z"/>
</svg>
