<?xml version="1.0" encoding="UTF-8"?>
<!DOCTYPE svg PUBLIC "-//W3C//DTD SVG 1.1//EN" "http://www.w3.org/Graphics/SVG/1.1/DTD/svg11.dtd">
<!-- Creator: CorelDRAW -->
<svg xmlns="http://www.w3.org/2000/svg" xml:space="preserve" width="128px" height="128px" shape-rendering="geometricPrecision" text-rendering="geometricPrecision" image-rendering="optimizeQuality" fill-rule="evenodd" clip-rule="evenodd"
viewBox="0 0 128 128"
 xmlns:xlink="http://www.w3.org/1999/xlink">
 <defs>
    <linearGradient id="id0" gradientUnits="userSpaceOnUse" x1="64.0434" y1="2.06645" x2="64.0434" y2="125.867">
     <stop offset="0" stop-color="#D9D9D9"/>
     <stop offset="0.188235" stop-color="#E3E3E3"/>
     <stop offset="0.490196" stop-color="#B5B5B5"/>
     <stop offset="0.678431" stop-color="#E8E8E8"/>
     <stop offset="0.831373" stop-color="#ABABAB"/>
     <stop offset="1" stop-color="white"/>
    </linearGradient>
    <linearGradient id="id1" gradientUnits="userSpaceOnUse" x1="64.4861" y1="7.48998" x2="64.4861" y2="119.555">
     <stop offset="0" stop-color="#E3E3E3"/>
     <stop offset="0.560784" stop-color="#E3E3E3"/>
     <stop offset="1" stop-color="white"/>
    </linearGradient>
    <linearGradient id="id2" gradientUnits="userSpaceOnUse" x1="64.7883" y1="9.77357" x2="64.7883" y2="115.319">
     <stop offset="0" stop-color="#D6D6D6"/>
     <stop offset="0.560784" stop-color="gainsboro"/>
     <stop offset="1" stop-color="white"/>
    </linearGradient>
 </defs>
 <g id="Layer_x0020_1">
  <metadata id="CorelCorpID_0Corel-Layer"/>
  <g id="_82172640">
   <path id="_123538448" fill="#828282" d="M19.709 1.44737l88.8632 0c9.93741,0 18.0683,8.4376 18.0683,18.75l0 87.4998c0,10.3124 -8.13089,18.75 -18.0683,18.75l-88.8632 0c-9.93769,0 -18.0683,-8.4376 -18.0683,-18.75l0 -87.4998c0,-10.3124 8.13061,-18.75 18.0683,-18.75z"/>
   <path id="_123537888" fill="#CFCFCF" d="M20.0097 3.26437l88.1979 0c9.86342,0 17.9331,8.25391 17.9331,18.3424l0 85.596c0,10.0882 -8.06966,18.3421 -17.9331,18.3421l-88.1979 0c-9.86314,0 -17.9331,-8.25391 -17.9331,-18.3421l0 -85.596c0,-10.0885 8.06994,-18.3424 17.9331,-18.3424z"/>
   <path id="_123537328" fill="url(#id0)" d="M20.4247 2.06645l87.237 0c9.75599,0 17.7378,8.35653 17.7378,18.5703l0 86.6599c0,10.2135 -7.98179,18.57 -17.7378,18.57l-87.237 0c-9.75571,0 -17.7378,-8.35653 -17.7378,-18.57l0 -86.6599c0,-10.2138 7.98207,-18.5703 17.7378,-18.5703z"/>
   <path id="_123536768" fill="#9C9C9C" d="M23.1828 18.1403l83.1452 0c9.2982,0 16.9058,7.03105 16.9058,15.6246l0 72.9133c0,8.5935 -7.60761,15.6246 -16.9058,15.6246l-83.1452 0c-9.2982,0 -16.9058,-7.03105 -16.9058,-15.6246l0 -72.9133c0,-8.5935 7.60761,-15.6246 16.9058,-15.6246z"/>
   <path id="_123536224" fill="#6E6E6E" d="M22.7027 4.76418l83.2537 0c9.31038,0 16.9276,7.87549 16.9276,17.5014l0 81.6709c0,9.62588 -7.61725,17.5014 -16.9276,17.5014l-83.2537 0c-9.3101,0 -16.9276,-7.87549 -16.9276,-17.5014l0 -81.6709c0,-9.62588 7.61754,-17.5014 16.9276,-17.5014z"/>
   <path id="_123573512" fill="#919191" d="M23.3387 6.04601l81.8466 0c9.15278,0 16.6416,7.74141 16.6416,17.2032l0 80.2796c0,9.46147 -7.48884,17.2029 -16.6416,17.2029l-81.8466 0c-9.15278,0 -16.1376,-7.74141 -16.1906,-17.2029l-0.450992 -80.2796c-0.0530078,-9.46175 7.48856,-17.2032 16.6416,-17.2032z"/>
   <path id="_81696144" fill="#B0B0B0" d="M23.6265 6.73029l81.1278 0c9.07284,0 16.4956,7.65524 16.4956,17.0121l0 79.3887c0,9.35687 -7.4228,17.0121 -16.4956,17.0121l-81.1278 0c-9.07227,0 -15.9962,-7.65524 -16.0486,-17.0121l-0.447023 -79.3887c-0.0524409,-9.35687 7.42308,-17.0121 16.4956,-17.0121z"/>
   <path id="_122565984" fill="url(#id1)" d="M24.728 7.48998l79.5166 0c8.89256,0 16.168,7.56453 16.168,16.81l0 78.4451c0,9.24547 -7.27539,16.81 -16.168,16.81l-79.5166 0c-8.89256,0 -16.168,-7.56453 -16.168,-16.81l0 -78.4451c0,-9.24547 7.27539,-16.81 16.168,-16.81z"/>
   <path id="_82172664" fill="url(#id2)" d="M26.4934 9.77357l76.5895 0c8.56516,0 15.5727,7.12431 15.5727,15.8318l0 73.8816c0,8.70746 -7.00752,15.8318 -15.5727,15.8318l-76.5895 0c-8.56487,0 -15.5727,-7.12431 -15.5727,-15.8318l0 -73.8816c0,-8.70746 7.0078,-15.8318 15.5727,-15.8318z"/>
  </g>
 </g>
</svg>
