<?xml version="1.0" encoding="UTF-8"?>
<!DOCTYPE svg PUBLIC "-//W3C//DTD SVG 1.1//EN" "http://www.w3.org/Graphics/SVG/1.1/DTD/svg11.dtd">
<!-- Creator: CorelDRAW -->
<svg xmlns="http://www.w3.org/2000/svg" xml:space="preserve" width="100px" height="100px" shape-rendering="geometricPrecision" text-rendering="geometricPrecision" image-rendering="optimizeQuality" fill-rule="evenodd" clip-rule="evenodd"
viewBox="0 0 100 100"
 xmlns:xlink="http://www.w3.org/1999/xlink">
 <defs>
    <linearGradient id="id0" gradientUnits="userSpaceOnUse" x1="1.25915" y1="49.8999" x2="98.5866" y2="49.8999">
     <stop offset="0" stop-color="#D9D9D9"/>
     <stop offset="0.188235" stop-color="#E3E3E3"/>
     <stop offset="0.490196" stop-color="#B5B5B5"/>
     <stop offset="0.678431" stop-color="#E8E8E8"/>
     <stop offset="0.831373" stop-color="#ABABAB"/>
     <stop offset="1" stop-color="white"/>
     <stop offset="1" stop-color="white"/>
    </linearGradient>
    <linearGradient id="id1" gradientUnits="userSpaceOnUse" x1="5.9176" y1="49.5487" x2="94.6306" y2="49.5487">
     <stop offset="0" stop-color="#E77817"/>
     <stop offset="0.560784" stop-color="#E5AD7D"/>
     <stop offset="1" stop-color="#E6AA3A"/>
     <stop offset="1" stop-color="#E6AA3A"/>
    </linearGradient>
    <linearGradient id="id2" gradientUnits="userSpaceOnUse" x1="7.79045" y1="48.7757" x2="93.2377" y2="48.7757">
     <stop offset="0" stop-color="#CC6A14"/>
     <stop offset="0.560784" stop-color="#D7A67B"/>
     <stop offset="1" stop-color="#FFC861"/>
     <stop offset="1" stop-color="#FFC861"/>
    </linearGradient>
 </defs>
 <g id="Layer_x0020_1">
  <metadata id="CorelCorpID_0Corel-Layer"/>
  <g id="_53667104">
   <path id="_53676896" fill="#828282" d="M14.76 0.429732l70.4806 0c7.88088,0 14.3297,6.67644 14.3297,14.8371l0 69.2345c0,8.16066 -6.44881,14.8362 -14.3297,14.8362l-70.4806 0c-7.88201,0 -14.3308,-6.67559 -14.3308,-14.8362l0 -69.2345c0,-8.16066 6.44881,-14.8371 14.3308,-14.8371z"/>
   <path id="_53675768" fill="#CFCFCF" d="M14.9987 1.86803l69.9525 0c7.82277,0 14.2228,6.53074 14.2228,14.5137l0 67.729c0,7.98207 -6.40006,14.5137 -14.2228,14.5137l-69.9525 0c-7.82277,0 -14.2228,-6.53159 -14.2228,-14.5137l0 -67.729c0,-7.98292 6.40006,-14.5137 14.2228,-14.5137z"/>
   <path id="_53674640" fill="url(#id0)" d="M15.3275 0.920409l69.1908 0c7.73773,0 14.0683,6.61209 14.0683,14.6931l0 68.5709c0,8.08214 -6.33061,14.6942 -14.0683,14.6942l-69.1908 0c-7.73773,0 -14.0683,-6.61209 -14.0683,-14.6942l0 -68.5709c0,-8.081 6.33061,-14.6931 14.0683,-14.6931z"/>
   <path id="_53673480" fill="#9C9C9C" d="M17.515 13.6389l65.9457 0c7.37433,0 13.4079,5.56356 13.4079,12.3633l0 57.6935c0,6.80003 -6.03354,12.3624 -13.4079,12.3624l-65.9457 0c-7.37433,0 -13.4081,-5.56242 -13.4081,-12.3624l0 -57.6935c0,-6.79974 6.03382,-12.3633 13.4081,-12.3633z"/>
   <path id="_53672352" fill="#6E4119" d="M17.1346 3.0549l66.031 0c7.38453,0 13.4257,6.23168 13.4257,13.8475l0 64.6242c0,7.61584 -6.04119,13.8475 -13.4257,13.8475l-66.031 0c-7.38453,0 -13.4257,-6.23168 -13.4257,-13.8475l0 -64.6242c0,-7.61584 6.04119,-13.8475 13.4257,-13.8475z"/>
   <path id="_53671560" fill="#915724" d="M17.6386 4.06885l64.9153 0c7.25981,0 13.199,6.1251 13.199,13.612l0 63.5224c0,7.48686 -5.93915,13.612 -13.199,13.612l-64.9153 0c-7.25896,0 -12.799,-6.1251 -12.8412,-13.612l-0.356882 -63.5224c-0.0422362,-7.48686 5.93915,-13.612 13.1981,-13.612z"/>
   <path id="_53670768" fill="#AD6A2F" d="M17.867 4.60998l64.345 0c7.19603,0 13.0827,6.05792 13.0827,13.4614l0 62.8177c0,7.40381 -5.8867,13.4606 -13.0827,13.4606l-64.345 0c-7.19518,0 -12.6864,-6.05678 -12.7287,-13.4606l-0.354047 -62.8177c-0.0422362,-7.40352 5.88756,-13.4614 13.0827,-13.4614z"/>
   <path id="_53669592" fill="url(#id1)" d="M18.7412 5.21178l63.0669 0c7.05288,0 12.8225,5.98507 12.8225,13.3007l0 62.071c0,7.31593 -5.76963,13.3007 -12.8225,13.3007l-63.0669 0c-7.05316,0 -12.8236,-5.98478 -12.8236,-13.3007l0 -62.071c0,-7.31565 5.77048,-13.3007 12.8236,-13.3007z"/>
   <path id="_53667144" fill="url(#id2)" d="M20.1407 7.01829l60.7456 0c6.79351,0 12.3514,5.63754 12.3514,12.5271l0 58.4597c0,6.89045 -5.55789,12.5269 -12.3514,12.5269l-60.7456 0c-6.79266,0 -12.3503,-5.63641 -12.3503,-12.5269l0 -58.4597c0,-6.8896 5.5576,-12.5271 12.3503,-12.5271z"/>
  </g>
 </g>
</svg>
