<?xml version="1.0" encoding="UTF-8"?>
<!DOCTYPE svg PUBLIC "-//W3C//DTD SVG 1.1//EN" "http://www.w3.org/Graphics/SVG/1.1/DTD/svg11.dtd">
<!-- Creator: CorelDRAW -->
<svg xmlns="http://www.w3.org/2000/svg" xml:space="preserve" width="100px" height="100px" shape-rendering="geometricPrecision" text-rendering="geometricPrecision" image-rendering="optimizeQuality" fill-rule="evenodd" clip-rule="evenodd"
viewBox="0 0 100 100">
 <defs>
   <linearGradient id="id0" gradientUnits="userSpaceOnUse" x1="1.28013" y1="49.8999" x2="98.5869" y2="49.8999">
    <stop offset="0" stop-color="#D9D9D9"/>
    <stop offset="0.188235" stop-color="#E3E3E3"/>
    <stop offset="0.490196" stop-color="#B5B5B5"/>
    <stop offset="0.678431" stop-color="#E8E8E8"/>
    <stop offset="0.831373" stop-color="#ABABAB"/>
    <stop offset="1" stop-color="white"/>
    <stop offset="1" stop-color="white"/>
   </linearGradient>
   <linearGradient id="id1" gradientUnits="userSpaceOnUse" x1="4.39058" y1="50.0887" x2="96.1395" y2="50.0887">
    <stop offset="0" stop-color="#E77817"/>
    <stop offset="0.560784" stop-color="#E5AD7D"/>
    <stop offset="1" stop-color="#FFD485"/>
    <stop offset="1" stop-color="#FFD485"/>
   </linearGradient>
   <linearGradient id="id2" gradientUnits="userSpaceOnUse" x1="6.63647" y1="51.3085" x2="94.3602" y2="51.3085">
    <stop offset="0" stop-color="#E77817"/>
    <stop offset="0.560784" stop-color="#E5AD7D"/>
    <stop offset="1" stop-color="#FFFAF2"/>
    <stop offset="1" stop-color="#FFFAF2"/>
   </linearGradient>
   <linearGradient id="id3" gradientUnits="userSpaceOnUse" x1="6.32749" y1="50.0113" x2="94.6984" y2="50.0113">
    <stop offset="0" stop-color="#E77817"/>
    <stop offset="0.560784" stop-color="#E5AD7D"/>
    <stop offset="1" stop-color="#FFD485"/>
    <stop offset="1" stop-color="#FFD485"/>
   </linearGradient>
 </defs>
 <g id="Layer_x0020_1">
  <metadata id="CorelCorpID_0Corel-Layer"/>
  <path id="_53548528" fill="#828282" d="M14.7781 0.429732l70.4656 0c7.87918,0 14.3266,6.67644 14.3266,14.8371l0 69.2345c0,8.16066 -6.4474,14.8362 -14.3266,14.8362l-70.4656 0c-7.88031,0 -14.3277,-6.67559 -14.3277,-14.8362l0 -69.2345c0,-8.16066 6.4474,-14.8371 14.3277,-14.8371z"/>
  <path id="_53547400" fill="#CFCFCF" d="M15.0168 1.86803l69.9375 0c7.82107,0 14.2197,6.53074 14.2197,14.5137l0 67.729c0,7.98207 -6.39864,14.5137 -14.2197,14.5137l-69.9375 0c-7.82135,0 -14.22,-6.53159 -14.22,-14.5137l0 -67.729c0,-7.98292 6.39864,-14.5137 14.22,-14.5137z"/>
  <path id="_53546272" fill="url(#id0)" d="M15.3456 0.920409l69.1758 0c7.73603,0 14.0655,6.61209 14.0655,14.6931l0 68.5709c0,8.08214 -6.32948,14.6942 -14.0655,14.6942l-69.1758 0c-7.73603,0 -14.0655,-6.61209 -14.0655,-14.6942l0 -68.5709c0,-8.081 6.32948,-14.6931 14.0655,-14.6931z"/>
  <path id="_53545144" fill="#854E1F" d="M17.1521 3.0549l66.0169 0c7.38311,0 13.4229,5.35322 13.4229,11.8961l0 55.5159c0,6.54293 -6.03978,11.897 -13.4229,11.897l-66.0169 0c-7.38283,0 -13.4229,-5.35408 -13.4229,-11.897l0 -55.5159c0,-6.54293 6.04006,-11.8961 13.4229,-11.8961z"/>
  <path id="_53544352" fill="#A86327" d="M17.0521 3.76809l65.7133 0c7.34938,0 13.3619,5.58198 13.3619,12.4044l0 57.8868c0,6.82242 -6.01256,12.4047 -13.3619,12.4047l-65.7133 0c-7.34825,0 -12.9566,-5.58226 -12.9985,-12.4047l-0.362551 -57.8868c-0.0422362,-6.82242 6.01285,-12.4044 13.3611,-12.4044z"/>
  <path id="_53542920" fill="#9C9C9C" d="M17.2281 13.7511l65.9307 0c7.37263,0 13.405,5.56327 13.405,12.3633l0 57.6935c0,6.79974 -6.03241,12.3624 -13.405,12.3624l-65.9307 0c-7.37348,0 -13.4062,-5.56271 -13.4062,-12.3624l0 -57.6935c0,-6.80003 6.03269,-12.3633 13.4062,-12.3633z"/>
  <path id="_53541776" fill="url(#id1)" d="M17.6525 4.34267l65.2254 0c7.29382,0 13.2616,6.17556 13.2616,13.7242l0 64.0448c0,7.54837 -5.96778,13.7239 -13.2616,13.7239l-65.2254 0c-7.29411,0 -13.2619,-6.17556 -13.2619,-13.7239l0 -64.0448c0,-7.54866 5.96778,-13.7242 13.2619,-13.7242z"/>
  <path id="_53540632" fill="url(#id2)" d="M19.3167 7.56878l62.3633 0c6.97464,0 12.6802,5.9057 12.6802,13.1224l0 61.2345c0,7.21757 -5.70557,13.1221 -12.6802,13.1221l-62.3633 0c-6.97379,0 -12.6802,-5.90456 -12.6802,-13.1221l0 -61.2345c0,-7.21672 5.70642,-13.1224 12.6802,-13.1224z"/>
  <path id="_53539576" fill="url(#id3)" d="M19.1012 6.2708l62.8231 0c7.02623,0 12.774,5.90456 12.774,13.1221l0 61.2365c0,7.21672 -5.74781,13.1221 -12.774,13.1221l-62.8231 0c-7.02623,0 -12.7738,-5.90541 -12.7738,-13.1221l0 -61.2365c0,-7.21757 5.74752,-13.1221 12.7738,-13.1221z"/>
 </g>
</svg>
