<?xml version="1.0" encoding="UTF-8"?>
<!DOCTYPE svg PUBLIC "-//W3C//DTD SVG 1.1//EN" "http://www.w3.org/Graphics/SVG/1.1/DTD/svg11.dtd">
<!-- Creator: CorelDRAW -->
<svg xmlns="http://www.w3.org/2000/svg" xml:space="preserve" width="128px" height="128px" shape-rendering="geometricPrecision" text-rendering="geometricPrecision" image-rendering="optimizeQuality" fill-rule="evenodd" clip-rule="evenodd"
viewBox="0 0 128 128"
 xmlns:xlink="http://www.w3.org/1999/xlink">
 <defs>
    <linearGradient id="id0" gradientUnits="userSpaceOnUse" x1="64.0434" y1="2.06645" x2="64.0434" y2="125.867">
     <stop offset="0" stop-color="#D9D9D9"/>
     <stop offset="0.188235" stop-color="#E3E3E3"/>
     <stop offset="0.490196" stop-color="#B5B5B5"/>
     <stop offset="0.678431" stop-color="#E8E8E8"/>
     <stop offset="0.831373" stop-color="#ABABAB"/>
     <stop offset="1" stop-color="white"/>
    </linearGradient>
    <linearGradient id="id1" gradientUnits="userSpaceOnUse" x1="64.4612" y1="6.3924" x2="64.4612" y2="122.021">
     <stop offset="0" stop-color="#D4D4D4"/>
     <stop offset="0.560784" stop-color="#DBDBDB"/>
     <stop offset="1" stop-color="white"/>
    </linearGradient>
    <linearGradient id="id2" gradientUnits="userSpaceOnUse" x1="64.7736" y1="8.82878" x2="64.7736" y2="119.387">
     <stop offset="0" stop-color="#D6D6D6"/>
     <stop offset="0.560784" stop-color="gainsboro"/>
     <stop offset="1" stop-color="white"/>
    </linearGradient>
 </defs>
 <g id="Layer_x0020_1">
  <metadata id="CorelCorpID_0Corel-Layer"/>
  <g id="_122358648">
   <path id="_82385672" fill="#828282" d="M19.709 1.44737l88.8632 0c9.93741,0 18.0683,8.4376 18.0683,18.75l0 87.4998c0,10.3124 -8.13089,18.75 -18.0683,18.75l-88.8632 0c-9.93769,0 -18.0683,-8.4376 -18.0683,-18.75l0 -87.4998c0,-10.3124 8.13061,-18.75 18.0683,-18.75z"/>
   <path id="_81696040" fill="#CFCFCF" d="M20.0097 3.26437l88.1979 0c9.86342,0 17.9331,8.25391 17.9331,18.3424l0 85.596c0,10.0882 -8.06966,18.3421 -17.9331,18.3421l-88.1979 0c-9.86314,0 -17.9331,-8.25391 -17.9331,-18.3421l0 -85.596c0,-10.0885 8.06994,-18.3424 17.9331,-18.3424z"/>
   <path id="_81695960" fill="url(#id0)" d="M20.4247 2.06645l87.237 0c9.75599,0 17.7378,8.35653 17.7378,18.5703l0 86.6599c0,10.2135 -7.98179,18.57 -17.7378,18.57l-87.237 0c-9.75571,0 -17.7378,-8.35653 -17.7378,-18.57l0 -86.6599c0,-10.2138 7.98207,-18.5703 17.7378,-18.5703z"/>
   <path id="_82568152" fill="#828282" d="M22.7027 4.76418l83.2537 0c9.31038,0 16.9276,6.76573 16.9276,15.0349l0 70.1611c0,8.26922 -7.61725,15.0347 -16.9276,15.0347l-83.2537 0c-9.3101,0 -16.9276,-6.76544 -16.9276,-15.0347l0 -70.1611c0,-8.26922 7.61754,-15.0349 16.9276,-15.0349z"/>
   <path id="_122300024" fill="#ABABAB" d="M22.5771 5.66617l82.8708 0c9.26758,0 16.85,7.05458 16.85,15.6767l0 73.1567c0,8.62242 -7.58239,15.6767 -16.85,15.6767l-82.8708 0c-9.2673,0 -16.3397,-7.05429 -16.3933,-15.6767l-0.456661 -73.1567c-0.0535748,-8.62213 7.58239,-15.6767 16.85,-15.6767z"/>
   <path id="_82478848" fill="#9C9C9C" d="M22.7982 18.282l83.1452 0c9.2982,0 16.9058,7.03105 16.9058,15.6246l0 72.9133c0,8.5935 -7.60761,15.6246 -16.9058,15.6246l-83.1452 0c-9.2982,0 -16.9058,-7.03105 -16.9058,-15.6246l0 -72.9133c0,-8.5935 7.60761,-15.6246 16.9058,-15.6246z"/>
   <path id="_82385568" fill="url(#id1)" d="M23.3336 6.3924l82.2551 0c9.1987,0 16.7247,7.80491 16.7247,17.3443l0 80.9398c0,9.53942 -7.52598,17.3443 -16.7247,17.3443l-82.2551 0c-9.19842,0 -16.7247,-7.80491 -16.7247,-17.3443l0 -80.9398c0,-9.53942 7.52626,-17.3443 16.7247,-17.3443z"/>
   <path id="_82228504" fill="#E8E8E8" d="M25.4327 10.4695l78.6463 0c8.79505,0 15.9908,7.46248 15.9908,16.5835l0 77.3889c0,9.12103 -7.19574,16.5835 -15.9908,16.5835l-78.6463 0c-8.79505,0 -15.9911,-7.46248 -15.9911,-16.5835l0 -77.3889c0,-9.12103 7.19602,-16.5835 15.9911,-16.5835z"/>
   <path id="_82582768" fill="url(#id2)" d="M25.16 8.82878l79.2271 0c8.85996,0 16.109,7.46276 16.109,16.5838l0 77.3906c0,9.12103 -7.24903,16.5838 -16.109,16.5838l-79.2271 0c-8.85996,0 -16.109,-7.46276 -16.109,-16.5838l0 -77.3906c0,-9.12103 7.24903,-16.5838 16.109,-16.5838z"/>
  </g>
 </g>
</svg>
