<?xml version="1.0" encoding="UTF-8" standalone="no"?>
<svg xmlns:rdf="http://www.w3.org/1999/02/22-rdf-syntax-ns#" xmlns="http://www.w3.org/2000/svg" xml:space="preserve" height="126" width="126" version="1.1" xmlns:cc="http://creativecommons.org/ns#" xmlns:dc="http://purl.org/dc/elements/1.1/" viewBox="0 0 126 126">
<path id="bgColor00" d="m18.95 0.72h88.476c9.892 0 17.987 8.4 17.987 18.667v87.118c0 10.268-8.098 18.668-17.987 18.668h-88.48c-9.894 0-17.988-8.402-17.988-18.668v-87.112c-0.002-10.265 8.094-18.668 17.988-18.668z" fill="#919191"/>
<path d="m107.62 0.447h-88.866c-9.938 0-18.069 8.438-18.065 18.75v87.5c0 10.313 8.127 18.75 18.065 18.75h88.863c9.934 0 18.068-8.438 18.068-18.75v-87.5c0.001-10.312-8.13-18.75-18.068-18.75zm13.763 103.39c0 9.625-7.592 17.502-16.862 17.502h-82.948c-9.275 0-16.864-7.879-16.864-17.502v-81.677c-0.001-9.624 7.588-17.501 16.864-17.501h82.946c9.272 0 16.862 7.876 16.862 17.501v81.673z" fill="#fff"/>
<path opacity=".49" d="m107.48 0.447h-88.867c-9.937 0-18.068 8.438-18.068 18.75v87.5c0 10.313 8.13 18.75 18.068 18.75h88.864c9.934 0 18.064-8.438 18.064-18.75v-87.5c0-10.312-8.127-18.75-18.064-18.75zm13.903 103.39c0 9.625-7.592 17.502-16.862 17.502h-82.948c-9.275 0-16.864-7.879-16.864-17.502v-81.677c-0.001-9.624 7.588-17.501 16.864-17.501h82.946c9.272 0 16.862 7.876 16.862 17.501v81.673z"/>
</svg>
