<?xml version="1.0" encoding="UTF-8" standalone="no"?>
<svg xmlns="http://www.w3.org/2000/svg" xml:space="preserve" height="126" width="126" version="1.1" viewBox="0 0 126 126">
<path id="bgColor00" fill="#919191" d="m107.42 0.569h-88.838c-9.936 0-18.063 8.437-18.063 18.745v87.475c0 10.309 8.128 18.746 18.063 18.746h88.84c9.93 0 18.062-8.436 18.062-18.746v-87.476c0-10.309-8.13-18.745-18.06-18.745z"/>
<path fill="#fff" d="m107.57 0.499h-88.859c-9.938 0-18.068 8.438-18.066 18.751v87.5c0 10.311 8.129 18.75 18.066 18.75h88.863c9.935 0 18.068-8.438 18.068-18.75v-87.5c0-10.312-8.13-18.751-18.07-18.751zm13.764 103.39c0 9.627-7.592 17.502-16.863 17.502h-82.941c-9.275 0-16.864-7.877-16.864-17.502v-81.674c-0.001-9.624 7.588-17.501 16.864-17.501h82.945c9.273 0 16.863 7.876 16.863 17.501v81.671z"/>
	<path d="m107.43-0.001h-88.86c-10.238 0-18.568 8.636-18.568 19.251v87.5c0 10.615 8.33 19.25 18.568 19.25h88.863c10.237 0 18.565-8.635 18.565-19.25v-87.5c0-10.615-8.33-19.251-18.57-19.251zm17.565 106.75c0 10.064-7.88 18.25-17.565 18.25h-88.87c-9.688 0-17.568-8.19-17.568-18.25v-87.5c0-10.063 7.881-18.251 17.568-18.251h88.863c9.686 0 17.565 8.188 17.565 18.251v87.5z"/>
<path d="m117.93 5.813-2.854 2.83c3.81 3.216 6.258 8.11 6.258 13.573v81.671c0 9.627-7.592 17.502-16.863 17.502h-82.951c-5.393 0-10.203-2.674-13.296-6.795l-2.863 2.84c3.259 4.291 8.308 7.061 13.952 7.061h87.354c9.771 0 17.765-8.295 17.765-18.434v-86.025c0-5.715-2.541-10.844-6.507-14.232z"/>
<path fill="#fff" d="m118.26 5.433-0.649 0.761c4.024 3.437 6.333 8.485 6.333 13.851v86.016c0 9.889-7.745 17.934-17.265 17.934h-87.358c-5.302 0-10.241-2.5-13.554-6.863l-0.797 0.605c3.503 4.613 8.733 7.258 14.351 7.258h87.354c10.071 0 18.265-8.492 18.265-18.934v-86.025c0-5.659-2.435-10.984-6.683-14.612z"/>
</svg>
