<?xml version="1.0" encoding="UTF-8" standalone="no"?>
<svg xmlns:rdf="http://www.w3.org/1999/02/22-rdf-syntax-ns#" xmlns="http://www.w3.org/2000/svg" enable-background="new 0 0 125 125" xml:space="preserve" height="125px" width="125px" version="1.1" y="0px" x="0px" xmlns:cc="http://creativecommons.org/ns#" xmlns:xlink="http://www.w3.org/1999/xlink" viewBox="0 0 125 125" xmlns:dc="http://purl.org/dc/elements/1.1/"><defs><linearGradient id="linearGradient2859" y2="611.14" gradientUnits="userSpaceOnUse" x2="692.46" gradientTransform="translate(-629.92,-486.79)" y1="487.21" x1="692.46"><stop stop-color="#fff" stop-opacity=".54" offset="0"/><stop stop-color="#fff" stop-opacity=".394" offset=".4111"/><stop stop-color="#fff" stop-opacity=".37" offset=".4788"/><stop stop-color="#fff" stop-opacity=".64" offset=".6303"/><stop stop-color="#fff" stop-opacity=".29" offset=".7818"/><stop stop-color="#fff" stop-opacity=".82" offset="1"/></linearGradient></defs>
<path id="bgColor00" fill="#777" d="m18.068 0h88.864c9.94 0 18.07 8.438 18.07 18.75v87.5c0 10.313-8.133 18.75-18.068 18.75h-88.862c-9.939 0-18.068-8.44-18.068-18.75v-87.5c-0.001-10.312 8.129-18.75 18.068-18.75z"/>
	<path fill="url(#linearGradient2859)" d="m105.47 124.3h-85.861c-10.439 0-18.934-8.78-18.934-19.56v-84.479c-0.001-5.192 1.965-10.092 5.536-13.794 3.587-3.721 8.347-5.77 13.397-5.77h85.865c10.44 0 18.935 8.776 18.935 19.563v84.473c0.01 10.78-8.49 19.56-18.93 19.56zm-85.861-120.68c-4.236 0-8.238 1.727-11.264 4.865-3.043 3.156-4.718 7.338-4.717 11.773v84.473c0 9.174 7.167 16.639 15.98 16.639h85.865c8.813 0 15.979-7.465 15.979-16.639v-84.475c0-9.174-7.166-16.639-15.979-16.639h-85.858z"/>
</svg>
