<?xml version="1.0" encoding="utf-8"?>
<!-- Generator: Adobe Illustrator 15.0.0, SVG Export Plug-In . SVG Version: 6.00 Build 0)  -->
<!DOCTYPE svg PUBLIC "-//W3C//DTD SVG 1.1//EN" "http://www.w3.org/Graphics/SVG/1.1/DTD/svg11.dtd">
<svg version="1.1"
	 id="Livello_1" xmlns:dc="http://purl.org/dc/elements/1.1/" xmlns:rdf="http://www.w3.org/1999/02/22-rdf-syntax-ns#" xmlns:cc="http://creativecommons.org/ns#"
	 xmlns="http://www.w3.org/2000/svg" xmlns:xlink="http://www.w3.org/1999/xlink" x="0px" y="0px" width="524.24px" height="166px"
	 viewBox="0 0 524.24 166" enable-background="new 0 0 524.24 166" xml:space="preserve">
<g id="g4872" transform="matrix(1.4048272,0,0,1.4048272,0,-3.0903091e-6)">
	<g id="g4874">
		
			<linearGradient id="path4887_1_" gradientUnits="userSpaceOnUse" x1="128.1863" y1="116.8898" x2="128.1863" y2="-7.4479" gradientTransform="matrix(1.4048 0 0 -1.4048 6.5022 161.0528)">
			<stop  offset="0" style="stop-color:#4D4D4D"/>
			<stop  offset="0.2047" style="stop-color:#474747"/>
			<stop  offset="0.4568" style="stop-color:#383838"/>
			<stop  offset="0.7324" style="stop-color:#1F1F1F"/>
			<stop  offset="1" style="stop-color:#000000"/>
		</linearGradient>
		<path id="path4887" opacity="0.25" fill="url(#path4887_1_)" enable-background="new    " d="M360.922,91.295
			c0,8.064-6.53,14.625-14.557,14.625H26.805c-8.027,0-14.559-6.561-14.559-14.625V26.871c0-8.065,6.531-14.627,14.559-14.627
			h319.56c8.027,0,14.557,6.562,14.557,14.627V91.295z M346.362,0H26.802C12.022,0-0.001,12.054-0.001,26.871v64.424
			c0,14.815,12.023,26.869,26.803,26.869h319.56c14.78,0,26.804-12.054,26.804-26.869v-64.42c0.01-14.817-12.021-26.871-26.8-26.871
			L346.362,0z"/>
		
			<linearGradient id="path4900_1_" gradientUnits="userSpaceOnUse" x1="128.1856" y1="115.8276" x2="128.1856" y2="-5.5274" gradientTransform="matrix(1.4048 0 0 -1.4048 6.5022 161.0528)">
			<stop  offset="0" style="stop-color:#4D4D4D"/>
			<stop  offset="0.2047" style="stop-color:#474747"/>
			<stop  offset="0.4568" style="stop-color:#383838"/>
			<stop  offset="0.7324" style="stop-color:#1F1F1F"/>
			<stop  offset="1" style="stop-color:#000000"/>
		</linearGradient>
		<path id="path4900" opacity="0.625" fill="url(#path4900_1_)" enable-background="new    " d="M360.922,91.295
			c0,8.064-6.53,14.625-14.557,14.625H26.805c-8.027,0-14.559-6.561-14.559-14.625V26.871c0-8.065,6.531-14.627,14.559-14.627
			h319.56c8.025,0,14.557,6.562,14.557,14.627V91.295z M346.362,1.417H26.802c-13.998,0-25.386,11.418-25.386,25.454v64.424
			c0,14.034,11.388,25.452,25.386,25.452h319.56c13.996,0,25.385-11.419,25.385-25.452V26.868c0-14.036-11.389-25.454-25.385-25.454
			V1.417z"/>
		
			<linearGradient id="path4913_1_" gradientUnits="userSpaceOnUse" x1="128.1849" y1="114.7648" x2="128.1849" y2="-3.6066" gradientTransform="matrix(1.4048 0 0 -1.4048 6.5022 161.0528)">
			<stop  offset="0" style="stop-color:#4D4D4D"/>
			<stop  offset="0.2047" style="stop-color:#474747"/>
			<stop  offset="0.4568" style="stop-color:#383838"/>
			<stop  offset="0.7324" style="stop-color:#1F1F1F"/>
			<stop  offset="1" style="stop-color:#000000"/>
		</linearGradient>
		<path id="path4913" fill="url(#path4913_1_)" d="M360.922,91.295c0,8.064-6.53,14.625-14.557,14.625H26.805
			c-8.027,0-14.559-6.561-14.559-14.625V26.871c0-8.065,6.531-14.627,14.559-14.627h319.56c8.025,0,14.557,6.562,14.557,14.627
			V91.295z M346.362,2.834H26.802c-13.216,0-23.969,10.783-23.969,24.037v64.424c0,13.253,10.753,24.035,23.969,24.035h319.56
			c13.215,0,23.967-10.782,23.967-24.035V26.871c0-13.254-10.75-24.037-23.97-24.037H346.362z"/>
	</g>
	
		<linearGradient id="path4934_1_" gradientUnits="userSpaceOnUse" x1="128.1856" y1="114.5903" x2="128.1856" y2="-4.526" gradientTransform="matrix(1.4048 0 0 -1.4048 6.5022 161.0528)">
		<stop  offset="0" style="stop-color:#696969"/>
		<stop  offset="0.1198" style="stop-color:#6E6E6E"/>
		<stop  offset="0.2472" style="stop-color:#7A7A7A"/>
		<stop  offset="0.4775" style="stop-color:#FFFFFF"/>
		<stop  offset="0.573" style="stop-color:#EDEDED"/>
		<stop  offset="0.6067" style="stop-color:#383838"/>
		<stop  offset="0.6461" style="stop-color:#141414"/>
		<stop  offset="0.7303" style="stop-color:#828282"/>
		<stop  offset="0.8933" style="stop-color:#000000"/>
	</linearGradient>
	<path id="path4934" fill="url(#path4934_1_)" d="M346.362,3.699H26.802c-12.74,0-23.104,10.395-23.104,23.172v64.424
		c0,12.775,10.364,23.17,23.104,23.17h319.56c12.738,0,23.103-10.395,23.103-23.17V26.876c0.01-12.777-10.361-23.172-23.1-23.172
		L346.362,3.699z M360.919,91.295c0,8.064-6.53,14.625-14.557,14.625H26.802c-8.027,0-14.559-6.561-14.559-14.625V26.871
		c0-8.065,6.531-14.627,14.559-14.627h319.56c8.026,0,14.557,6.562,14.557,14.627V91.295z"/>
	<path id="path4936" fill="#FFFFFF" d="M346.362,12.244H26.802c-8.027,0-14.559,6.562-14.559,14.627v64.424
		c0,8.064,6.531,14.625,14.559,14.625h319.56c8.026,0,14.557-6.561,14.557-14.625V26.871
		C360.918,18.806,354.388,12.244,346.362,12.244L346.362,12.244z M360.053,91.295c0,7.587-6.142,13.76-13.69,13.76H26.803
		c-7.55,0-13.692-6.173-13.692-13.76V26.866c0-7.588,6.143-13.761,13.692-13.761h319.56c7.549,0,13.69,6.173,13.69,13.761V91.29
		V91.295z"/>
	
		<linearGradient id="path4949_1_" gradientUnits="userSpaceOnUse" x1="141.9798" y1="134.133" x2="105.0398" y2="-30.686" gradientTransform="matrix(1.4048 0 0 -1.4048 6.5022 161.0528)">
		<stop  offset="0.0056" style="stop-color:#666666"/>
		<stop  offset="0.1854" style="stop-color:#D1D1D1"/>
		<stop  offset="0.2416" style="stop-color:#E3E3E3"/>
		<stop  offset="0.4326" style="stop-color:#FFFFFF"/>
		<stop  offset="0.8034" style="stop-color:#1A1A1A"/>
	</linearGradient>
	<path id="path4949" fill="url(#path4949_1_)" d="M346.362,13.11H26.802c-7.55,0-13.692,6.173-13.692,13.761v64.424
		c0,7.587,6.143,13.76,13.692,13.76h319.56c7.549,0,13.69-6.173,13.69-13.76V26.866c0-7.588-6.142-13.761-13.691-13.761
		L346.362,13.11z M356.915,91.295c0,5.856-4.733,10.62-10.553,10.62H26.802c-5.82,0-10.555-4.765-10.555-10.62V26.867
		c0-5.857,4.734-10.623,10.555-10.623h319.56c5.819,0,10.553,4.766,10.553,10.623v64.424V91.295z"/>
	
		<linearGradient id="path4960_1_" gradientUnits="userSpaceOnUse" x1="128.1849" y1="123.5055" x2="128.1849" y2="2.6752" gradientTransform="matrix(1.4048 0 0 -1.4048 6.5022 161.0528)">
		<stop  offset="0.0056" style="stop-color:#666666"/>
		<stop  offset="0.3034" style="stop-color:#D1D1D1"/>
		<stop  offset="0.4663" style="stop-color:#FFFFFF"/>
		<stop  offset="0.8034" style="stop-color:#1A1A1A"/>
	</linearGradient>
	<path id="path4960" fill="url(#path4960_1_)" d="M346.362,16.248H26.802c-5.82,0-10.555,4.766-10.555,10.623v64.424
		c0,5.856,4.734,10.62,10.555,10.62h319.56c5.819,0,10.553-4.765,10.553-10.62V26.867c-0.001-5.857-4.734-10.623-10.554-10.623
		L346.362,16.248z M356.601,91.295c0,5.693-4.585,10.307-10.238,10.307H26.803c-5.656,0-10.24-4.613-10.24-10.307V26.873
		c0-5.693,4.584-10.309,10.24-10.309h319.56c5.654,0,10.238,4.615,10.238,10.309v64.424V91.295z"/>
	
		<linearGradient id="path4967_1_" gradientUnits="userSpaceOnUse" x1="128.1884" y1="70.5116" x2="128.1884" y2="127.489" gradientTransform="matrix(1.4048 0 0 -1.4048 6.5022 161.0528)">
		<stop  offset="0.427" style="stop-color:#525252"/>
		<stop  offset="0.7753" style="stop-color:#0D0D0D"/>
	</linearGradient>
	<path id="path4967" fill="url(#path4967_1_)" d="M14.677,45.108c0.63-1.384,1.574,1.063,1.574,1.063v-19.3
		c0-5.857,4.734-10.623,10.555-10.623h319.56c5.819,0,10.553,4.766,10.553,10.623v19.3c0,0,0.584-1.439,1.842-0.56
		c1.258,0.881,1.296,11.56,1.296,11.56v-30.3c0-7.588-6.142-13.761-13.69-13.761H26.807c-7.55,0-13.692,6.173-13.692,13.761v30.3
		c-0.001,0,0.933-10.679,1.563-12.063H14.677z"/>
</g>
<path id="bgColor00" fill="#7F7C7C" d="M500.612,128.023c0,7.998-6.438,14.479-14.383,14.479H37.303
	c-7.945,0-14.386-6.479-14.386-14.479V37.522c0-7.998,6.44-14.482,14.386-14.482h448.926c7.943,0,14.383,6.483,14.383,14.482v90.503
	V128.023z"/>
</svg>
