<?xml version="1.0" encoding="utf-8"?>
<!-- Generator: Adobe Illustrator 15.0.0, SVG Export Plug-In . SVG Version: 6.00 Build 0)  -->
<!DOCTYPE svg PUBLIC "-//W3C//DTD SVG 1.1//EN" "http://www.w3.org/Graphics/SVG/1.1/DTD/svg11.dtd">
<svg version="1.1" id="Livello_1" xmlns="http://www.w3.org/2000/svg" xmlns:xlink="http://www.w3.org/1999/xlink" x="0px" y="0px"
	 width="524.232px" height="166px" viewBox="0 0 524.232 166" enable-background="new 0 0 524.232 166" xml:space="preserve">
<g>
	<g>
		
			<linearGradient id="SVGID_1_" gradientUnits="userSpaceOnUse" x1="419.2654" y1="-78.7021" x2="419.2654" y2="-277.2838" gradientTransform="matrix(1 0 0 -1 -157.1499 -80.7305)">
			<stop  offset="0" style="stop-color:#4D4D4D"/>
			<stop  offset="0.2047" style="stop-color:#474747"/>
			<stop  offset="0.4568" style="stop-color:#383838"/>
			<stop  offset="0.7324" style="stop-color:#1F1F1F"/>
			<stop  offset="1" style="stop-color:#000000"/>
		</linearGradient>
		<path opacity="0.25" fill="url(#SVGID_1_)" enable-background="new    " d="M507.031,120.719c0,5.637-3.151,8.77-4.5,10.105
			l-13.36,13.453c-1.334,1.353-4.456,4.521-10.076,4.521H45.141c-5.637,0-8.759-3.183-10.093-4.541l-13.346-13.435
			c-1.347-1.336-4.5-4.469-4.5-10.104v-75.44c0-5.625,3.147-8.758,4.492-10.095l13.354-13.439c1.334-1.358,4.456-4.544,10.093-4.544
			h433.953c5.623,0,8.742,3.172,10.076,4.525l13.372,13.458c1.345,1.336,4.488,4.47,4.488,10.095V120.719L507.031,120.719z
			 M514.674,22.993L501.412,9.642C499.069,7.266,491.91,0,479.094,0H45.141C32.278,0,25.119,7.301,22.768,9.699L9.655,22.897
			C7.276,25.262,0,32.508,0,45.281v75.442c0,12.797,7.211,19.951,9.581,22.307l13.206,13.293c2.332,2.38,9.491,9.679,22.354,9.679
			h433.953c12.83,0,19.979-7.269,22.33-9.655l13.155-13.242c2.373-2.355,9.652-9.586,9.652-22.381V45.281
			C524.232,32.5,517.038,25.344,514.674,22.993z"/>
		
			<linearGradient id="SVGID_2_" gradientUnits="userSpaceOnUse" x1="419.2654" y1="-80.7422" x2="419.2654" y2="-274.5598" gradientTransform="matrix(1 0 0 -1 -157.1499 -80.7305)">
			<stop  offset="0" style="stop-color:#4D4D4D"/>
			<stop  offset="0.2047" style="stop-color:#474747"/>
			<stop  offset="0.4568" style="stop-color:#383838"/>
			<stop  offset="0.7324" style="stop-color:#1F1F1F"/>
			<stop  offset="1" style="stop-color:#000000"/>
		</linearGradient>
		<path opacity="0.625" fill="url(#SVGID_2_)" enable-background="new    " d="M507.03,120.721c0,5.633-3.151,8.768-4.5,10.104
			l-13.36,13.45c-1.334,1.354-4.457,4.523-10.076,4.523H45.14c-5.637,0-8.76-3.186-10.093-4.543l-13.345-13.432
			c-1.347-1.338-4.5-4.473-4.5-10.105v-75.44c0-5.626,3.146-8.758,4.491-10.096l13.354-13.438c1.333-1.358,4.457-4.543,10.093-4.543
			h433.953c5.623,0,8.742,3.171,10.076,4.523l13.373,13.458c1.344,1.338,4.487,4.47,4.487,10.096V120.721z M513.269,24.404
			l-13.271-13.36c-2.202-2.235-8.921-9.053-20.905-9.053H45.14c-12.023,0-18.743,6.85-20.95,9.102L11.067,24.3
			c-2.282,2.271-9.076,9.034-9.076,20.98v75.441c0,11.965,6.768,18.686,8.992,20.895L24.2,154.918
			c2.198,2.242,8.917,9.091,20.94,9.091h433.953c11.992,0,18.706-6.819,20.912-9.062l13.162-13.248
			c2.271-2.258,9.073-9.014,9.073-20.979V45.28C522.241,33.33,515.489,26.611,513.269,24.404z"/>
		
			<linearGradient id="SVGID_3_" gradientUnits="userSpaceOnUse" x1="419.2664" y1="-82.7817" x2="419.2664" y2="-271.8353" gradientTransform="matrix(1 0 0 -1 -157.1499 -80.7305)">
			<stop  offset="0" style="stop-color:#4D4D4D"/>
			<stop  offset="0.2047" style="stop-color:#474747"/>
			<stop  offset="0.4568" style="stop-color:#383838"/>
			<stop  offset="0.7324" style="stop-color:#1F1F1F"/>
			<stop  offset="1" style="stop-color:#000000"/>
		</linearGradient>
		<path fill="url(#SVGID_3_)" d="M507.03,120.721c0,5.633-3.151,8.766-4.5,10.105l-13.362,13.449
			c-1.335,1.354-4.456,4.524-10.074,4.524H45.14c-5.637,0-8.761-3.187-10.094-4.545l-13.345-13.43
			c-1.348-1.341-4.5-4.474-4.5-10.104V45.279c0-5.627,3.146-8.758,4.49-10.097l13.354-13.439c1.333-1.358,4.457-4.541,10.094-4.541
			h433.953c5.621,0,8.742,3.169,10.075,4.522l13.371,13.458c1.346,1.339,4.49,4.47,4.49,10.097L507.03,120.721L507.03,120.721z
			 M511.865,25.815l-13.278-13.368c-2.063-2.094-8.341-8.465-19.493-8.465H45.14c-11.185,0-17.465,6.399-19.527,8.503L12.479,25.703
			c-2.187,2.176-8.496,8.456-8.496,19.577v75.441c0,11.135,6.324,17.418,8.403,19.48l13.227,13.313
			c2.063,2.105,8.344,8.504,19.527,8.504h433.953c11.152,0,17.431-6.371,19.492-8.468l13.169-13.255
			c2.172-2.156,8.495-8.439,8.495-19.574V45.279C520.25,34.159,513.939,27.878,511.865,25.815z"/>
	</g>
	
		<linearGradient id="SVGID_4_" gradientUnits="userSpaceOnUse" x1="419.2664" y1="-79.7954" x2="419.2664" y2="-245.8829" gradientTransform="matrix(1 0 0 -1 -157.1499 -80.7305)">
		<stop  offset="0" style="stop-color:#696969"/>
		<stop  offset="0.1198" style="stop-color:#6E6E6E"/>
		<stop  offset="0.2472" style="stop-color:#7A7A7A"/>
		<stop  offset="0.4775" style="stop-color:#FFFFFF"/>
		<stop  offset="0.573" style="stop-color:#EDEDED"/>
		<stop  offset="0.6067" style="stop-color:#383838"/>
		<stop  offset="0.6461" style="stop-color:#141414"/>
		<stop  offset="0.7303" style="stop-color:#828282"/>
		<stop  offset="0.8933" style="stop-color:#000000"/>
	</linearGradient>
	<path fill="url(#SVGID_4_)" d="M511.01,26.674L497.721,13.3c-1.976-2.005-7.982-8.105-18.628-8.105H45.14
		c-10.676,0-16.688,6.127-18.662,8.141L13.224,26.674c-1.985,1.976-8.025,7.99-8.025,18.605v75.442
		c0,10.629,6.054,16.643,8.043,18.618l13.236,13.324c1.976,2.015,7.986,8.142,18.662,8.142h433.953
		c10.645,0,16.652-6.104,18.628-8.105l13.17-13.258c2.09-2.077,8.144-8.092,8.144-18.721V45.279
		C519.034,34.664,512.994,28.649,511.01,26.674z M507.03,120.721c0,5.633-3.151,8.766-4.5,10.105l-13.362,13.449
		c-1.335,1.354-4.456,4.524-10.074,4.524H45.14c-5.637,0-8.761-3.187-10.094-4.545l-13.345-13.43c-1.348-1.341-4.5-4.474-4.5-10.104
		V45.279c0-5.627,3.146-8.758,4.49-10.097l13.354-13.439c1.333-1.358,4.457-4.541,10.094-4.541h433.953
		c5.621,0,8.742,3.169,10.075,4.522l13.371,13.458c1.346,1.339,4.49,4.47,4.49,10.097L507.03,120.721L507.03,120.721z"/>
	
		<linearGradient id="SVGID_5_" gradientUnits="userSpaceOnUse" x1="477.6414" y1="12.5322" x2="369.4816" y2="-314.054" gradientTransform="matrix(1 0 0 -1 -157.1499 -80.7305)">
		<stop  offset="0.0056" style="stop-color:#666666"/>
		<stop  offset="0.1854" style="stop-color:#D1D1D1"/>
		<stop  offset="0.2416" style="stop-color:#E3E3E3"/>
		<stop  offset="0.4326" style="stop-color:#FFFFFF"/>
		<stop  offset="0.8034" style="stop-color:#1A1A1A"/>
	</linearGradient>
	<path fill="url(#SVGID_5_)" d="M501.683,36.044l-13.38-13.467c-1.331-1.35-4.101-4.16-9.21-4.16H45.14
		c-5.124,0-7.895,2.821-9.226,4.179L22.55,36.044c-1.341,1.336-4.131,4.113-4.131,9.233v75.44c0,5.131,2.796,7.908,4.142,9.244
		l13.354,13.441c1.331,1.359,4.102,4.18,9.226,4.18h433.953c5.108,0,7.878-2.811,9.207-4.162l13.373-13.459
		c1.345-1.336,4.141-4.113,4.141-9.244v-75.44C505.813,40.157,503.023,37.38,501.683,36.044z M501.405,120.717
		c0,3.297-1.708,4.994-2.839,6.117l-13.407,13.493c-1.115,1.134-2.803,2.846-6.065,2.846H45.14c-3.274,0-4.962-1.718-6.079-2.856
		l-13.396-13.481c-1.13-1.123-2.838-2.821-2.838-6.117v-75.44c0-3.287,1.705-4.985,2.833-6.108l13.4-13.486
		c1.117-1.139,2.805-2.859,6.079-2.859h433.953c3.265,0,4.952,1.712,6.067,2.845l13.411,13.5c1.128,1.123,2.833,2.821,2.833,6.108
		L501.405,120.717L501.405,120.717z"/>
	
		<linearGradient id="SVGID_6_" gradientUnits="userSpaceOnUse" x1="419.2654" y1="-58.708" x2="419.2654" y2="-228.7174" gradientTransform="matrix(1 0 0 -1 -157.1499 -80.7305)">
		<stop  offset="0.0056" style="stop-color:#666666"/>
		<stop  offset="0.3034" style="stop-color:#D1D1D1"/>
		<stop  offset="0.4663" style="stop-color:#FFFFFF"/>
		<stop  offset="0.8034" style="stop-color:#1A1A1A"/>
	</linearGradient>
	<path fill="url(#SVGID_6_)" d="M498.574,39.169l-13.412-13.498c-1.116-1.133-2.805-2.845-6.068-2.845H45.14
		c-3.273,0-4.961,1.719-6.077,2.857L25.661,39.169c-1.128,1.123-2.834,2.821-2.834,6.109v75.44c0,3.294,1.709,4.992,2.84,6.115
		l13.396,13.481c1.116,1.14,2.804,2.857,6.077,2.857h433.953c3.265,0,4.95-1.713,6.065-2.847l13.409-13.493
		c1.131-1.123,2.837-2.82,2.837-6.115v-75.44C501.405,41.99,499.701,40.292,498.574,39.169z M500.965,120.719
		c0,3.305-1.795,4.881-2.911,6.004c-0.582,0.588-12.216,12.293-12.995,13.08c-1.119,1.121-2.684,2.93-5.965,2.93
		c-1.377,0-432.579,0-433.953,0c-3.282,0-4.85-1.805-5.966-2.93c-0.778-0.785-12.412-12.492-12.994-13.08
		c-1.116-1.123-2.911-2.699-2.911-6.004c0-1.973,0-73.465,0-75.44c0-3.304,1.795-4.878,2.911-6.003
		c0.582-0.587,12.216-12.292,12.994-13.077c1.116-1.125,2.684-2.93,5.966-2.93c1.374,0,432.576,0,433.953,0
		c3.281,0,4.846,1.805,5.965,2.927c0.779,0.788,12.413,12.493,12.995,13.08c1.116,1.125,2.911,2.7,2.911,6.003
		C500.965,47.253,500.965,118.746,500.965,120.719z"/>
	
		<linearGradient id="SVGID_7_" gradientUnits="userSpaceOnUse" x1="419.3181" y1="-168.2808" x2="419.3181" y2="-92.82" gradientTransform="matrix(1 0 0 -1 -157.1499 -80.7305)">
		<stop  offset="0.427" style="stop-color:#525252"/>
		<stop  offset="0.7753" style="stop-color:#0D0D0D"/>
	</linearGradient>
	<path fill="url(#SVGID_7_)" d="M20.892,60.703c1.351-1.951,1.986,6.919,1.986,6.919V45.277c0-3.287,1.705-4.985,2.833-6.108
		l13.401-13.486c1.116-1.139,2.804-2.859,6.078-2.859h433.953c3.266,0,4.953,1.712,6.068,2.845l13.411,13.5
		c1.128,1.123,2.832,2.821,2.832,6.108v22.345c0,0,1.12-8.837,2.317-7.398c1.759,2.111,2.091,21.447,2.091,21.447V45.277
		c0-5.12-2.79-7.896-4.131-9.233l-13.38-13.467c-1.331-1.35-4.099-4.16-9.21-4.16H45.191c-5.124,0-7.895,2.821-9.226,4.179
		L22.602,36.044c-1.34,1.336-4.131,4.113-4.131,9.233V81.67C18.471,81.67,18.733,63.819,20.892,60.703z"/>
	<path fill="#FFFFFF" d="M502.541,35.182l-13.372-13.458c-1.333-1.353-4.453-4.523-10.075-4.523H45.14
		c-5.637,0-8.76,3.185-10.093,4.542L21.693,35.182c-1.344,1.338-4.491,4.47-4.491,10.096v75.44c0,5.636,3.152,8.769,4.5,10.104
		l13.346,13.433c1.333,1.358,4.456,4.543,10.093,4.543h433.953c5.619,0,8.742-3.17,10.075-4.522l13.361-13.451
		c1.349-1.338,4.5-4.471,4.5-10.105v-75.44C507.03,39.652,503.886,36.52,502.541,35.182z M505.814,120.721
		c0,5.127-2.796,7.907-4.141,9.24l-13.373,13.46c-1.33,1.353-4.1,4.161-9.208,4.161H45.14c-5.123,0-7.895-2.822-9.226-4.178
		l-13.354-13.443c-1.345-1.333-4.142-4.113-4.142-9.24V45.279c0-5.121,2.791-7.899,4.13-9.234l13.365-13.449
		c1.331-1.357,4.103-4.179,9.226-4.179h433.953c5.111,0,7.88,2.81,9.211,4.16l13.379,13.468c1.342,1.335,4.132,4.113,4.132,9.234
		L505.814,120.721L505.814,120.721z"/>
</g>
<path id="bgColor00" fill="#7F7C7C" d="M499.966,119.719c0,3.305-1.795,4.881-2.911,6.004c-0.582,0.588-12.216,12.293-12.995,13.08
	c-1.118,1.121-2.684,2.93-5.965,2.93c-1.377,0-432.578,0-433.952,0c-3.282,0-4.851-1.805-5.967-2.93
	c-0.777-0.785-12.411-12.492-12.993-13.08c-1.116-1.123-2.911-2.699-2.911-6.004c0-1.973,0-73.464,0-75.438
	c0-3.304,1.795-4.878,2.911-6.003C25.764,37.69,37.398,25.985,38.176,25.2c1.116-1.125,2.685-2.93,5.967-2.93
	c1.374,0,432.575,0,433.952,0c3.282,0,4.847,1.805,5.965,2.927c0.779,0.788,12.413,12.493,12.995,13.08
	c1.116,1.125,2.911,2.7,2.911,6.003C499.966,46.254,499.966,117.747,499.966,119.719z"/>
</svg>
