<?xml version="1.0" encoding="UTF-8" standalone="no"?>
<svg xmlns:rdf="http://www.w3.org/1999/02/22-rdf-syntax-ns#" xmlns="http://www.w3.org/2000/svg" xml:space="preserve" height="50.091px" viewBox="0 0 50.129 50.091" width="50.129px" version="1.1" enable-background="new 0 0 50.129 50.091" y="0px" x="0px" xmlns:cc="http://creativecommons.org/ns#" xmlns:dc="http://purl.org/dc/elements/1.1/">
<path id="bgColor00" d="m49.444 42.216l-0.303-0.303-12.084-12.09c1.677-2.891 2.654-6.245 2.676-9.829 0.074-10.974-8.764-19.925-19.736-19.994h-0.131c-10.913 0-19.796 8.812-19.866 19.741-0.067 10.972 8.771 19.923 19.739 19.992h0.131c3.648 0 7.064-0.988 10.004-2.705l12.076 12.075h0.002l0.303 0.303c0.911 0.915 2.394 0.911 3.307 0l3.883-3.883c0.913-0.916 0.913-2.396-0.001-3.307m-19.144-11.849c-2.793 2.774-6.495 4.302-10.429 4.302h-0.097c-8.161-0.055-14.756-6.734-14.706-14.897 0.025-3.934 1.577-7.631 4.37-10.405 2.793-2.769 6.493-4.298 10.427-4.298h0.099c3.954 0.025 7.66 1.586 10.436 4.4 2.778 2.815 4.295 6.541 4.27 10.493-0.026 3.937-1.577 7.636-4.37 10.405m-7.099-20.931h-6.096v6.917h-6.917v6.092h6.917v6.916h6.096v-6.916h6.917v-6.092h-6.917v-6.917z"/>
</svg>
