<?xml version="1.0" encoding="UTF-8" standalone="no"?>
<svg xmlns:rdf="http://www.w3.org/1999/02/22-rdf-syntax-ns#" xmlns="http://www.w3.org/2000/svg" xml:space="preserve" height="50.088px" viewBox="0 0 50.127 50.088" width="50.127px" version="1.1" enable-background="new 0 0 50.127 50.088" y="0px" x="0px" xmlns:cc="http://creativecommons.org/ns#" xmlns:dc="http://purl.org/dc/elements/1.1/">
<path id="bgColor00" d="m49.442 42.212l-0.302-0.302-12.084-12.086c1.681-2.895 2.654-6.246 2.676-9.833 0.071-10.971-8.765-19.922-19.738-19.991h-0.133c-10.908 0-19.792 8.812-19.861 19.739-0.069 10.97 8.767 19.921 19.737 19.994h0.132c3.647 0 7.063-0.988 10.006-2.705l12.073 12.075h0.002l0.301 0.299c0.915 0.915 2.396 0.915 3.307 0l3.885-3.883c0.912-0.911 0.912-2.392-0.001-3.307m-29.67-7.546c-8.162-0.052-14.758-6.735-14.706-14.894 0.051-8.108 6.69-14.708 14.797-14.708h0.099c3.952 0.026 7.66 1.59 10.437 4.401 2.778 2.815 4.295 6.541 4.268 10.497-0.024 3.934-1.577 7.631-4.368 10.405-2.793 2.771-6.495 4.299-10.429 4.299h-0.098z"/>
</svg>
