<?xml version="1.0" encoding="UTF-8" standalone="no"?>
<svg xmlns:rdf="http://www.w3.org/1999/02/22-rdf-syntax-ns#" xmlns="http://www.w3.org/2000/svg" xml:space="preserve" height="50.089px" viewBox="0 0 50.129 50.089" width="50.129px" version="1.1" enable-background="new 0 0 50.129 50.089" y="0px" x="0px" xmlns:cc="http://creativecommons.org/ns#" xmlns:dc="http://purl.org/dc/elements/1.1/">
<path id="bgColor00" d="m49.443 42.212l-0.303-0.299 0.002-0.003-12.085-12.086c1.68-2.892 2.655-6.246 2.675-9.83 0.071-10.974-8.765-19.925-19.737-19.994h-0.131c-10.911 0-19.792 8.812-19.864 19.739-0.069 10.974 8.767 19.925 19.74 19.994h0.131c3.646 0 7.064-0.988 10.004-2.705l12.076 12.075h0.002l0.301 0.303c0.913 0.911 2.394 0.911 3.305 0l3.885-3.887c0.914-0.912 0.914-2.392-0.001-3.307m-19.145-11.845c-2.792 2.774-6.495 4.298-10.427 4.298h-0.098c-8.16-0.051-14.757-6.734-14.704-14.893 0.049-8.109 6.688-14.704 14.797-14.704h0.097c3.954 0.025 7.662 1.586 10.437 4.4 2.78 2.811 4.294 6.541 4.267 10.493-0.023 3.938-1.577 7.631-4.369 10.406m-20.107-7.569h19.925v-6.096h-19.925v6.096z"/>
</svg>
