<?xml version="1.0" encoding="UTF-8" standalone="no"?>
<svg xmlns:rdf="http://www.w3.org/1999/02/22-rdf-syntax-ns#" xmlns="http://www.w3.org/2000/svg" xml:space="preserve" overflow="visible" height="27.307" viewBox="0 0 26.744 27.307" width="26.744" version="1.1" enable-background="new 0 0 26.744 27.307" xmlns:cc="http://creativecommons.org/ns#" xmlns:dc="http://purl.org/dc/elements/1.1/">
<path id="bgColor00" d="m13.18 0.002h0.017-0.017zm13.564 13.65c-0.001-7.498-6.049-13.596-13.555-13.65-0.041-0.002-0.076-0.002-0.098-0.002-3.864 0-7.37 1.615-9.851 4.203l-3.24-3.281v9.535h9.416l-3.27-3.309c1.742-1.859 4.201-3.014 6.944-3.014h0.062c5.235 0.031 9.461 4.289 9.459 9.518v0.074c-0.039 5.229-4.295 9.445-9.517 9.445h-0.082l0.012 4.135h0.07c7.499-0.002 13.6-6.055 13.649-13.566v-0.088z"/>
</svg>
