<?xml version="1.0" encoding="UTF-8" standalone="no"?>
<svg xmlns:rdf="http://www.w3.org/1999/02/22-rdf-syntax-ns#" xmlns="http://www.w3.org/2000/svg" xml:space="preserve" overflow="visible" height="43" viewBox="0 0 43 43" width="43" version="1.1" enable-background="new 0 0 43 43" xmlns:cc="http://creativecommons.org/ns#" xmlns:dc="http://purl.org/dc/elements/1.1/">
<path id="bgColor00" d="m21.498 0c-11.873 0-21.498 9.626-21.498 21.502 0 11.872 9.625 21.498 21.498 21.498 11.877 0 21.502-9.626 21.502-21.498 0-11.876-9.625-21.502-21.502-21.502zm-16.763 21.502c0-3.805 1.276-7.315 3.42-10.133l23.476 23.476c-2.817 2.144-6.329 3.42-10.133 3.42-9.241 0-16.763-7.522-16.763-16.763zm30.155 10.069l-23.453-23.467c2.806-2.111 6.289-3.368 10.062-3.368 9.245 0 16.765 7.521 16.765 16.767-0.001 3.775-1.258 7.263-3.374 10.068z"/>
</svg>
