<?xml version="1.0" encoding="UTF-8" standalone="no"?>
<!-- Created with Inkscape (http://www.inkscape.org/) -->
<svg
   xmlns:dc="http://purl.org/dc/elements/1.1/"
   xmlns:cc="http://creativecommons.org/ns#"
   xmlns:rdf="http://www.w3.org/1999/02/22-rdf-syntax-ns#"
   xmlns:svg="http://www.w3.org/2000/svg"
   xmlns="http://www.w3.org/2000/svg"
   xmlns:xlink="http://www.w3.org/1999/xlink"
   xmlns:sodipodi="http://sodipodi.sourceforge.net/DTD/sodipodi-0.dtd"
   xmlns:inkscape="http://www.inkscape.org/namespaces/inkscape"
   version="1.0"
   width="100%"
   height="100%"
   viewBox="0 0 121.94609 121.32259"
   id="Livello_1"
   xml:space="preserve"
   style="overflow:visible"
   inkscape:version="0.46"
   sodipodi:docname="li_round_pointy1.svg"
   sodipodi:version="0.32"
   inkscape:output_extension="org.inkscape.output.svg.inkscape"><metadata
   id="metadata9829"><rdf:RDF><cc:Work
       rdf:about=""><dc:format>image/svg+xml</dc:format><dc:type
         rdf:resource="http://purl.org/dc/dcmitype/StillImage" /></cc:Work></rdf:RDF></metadata><sodipodi:namedview
   pagecolor="#ffffff"
   bordercolor="#666666"
   borderopacity="1"
   objecttolerance="10"
   gridtolerance="10"
   guidetolerance="10"
   inkscape:pageopacity="0"
   inkscape:pageshadow="2"
   inkscape:window-width="1440"
   inkscape:window-height="850"
   id="namedview9827"
   showgrid="false"
   inkscape:zoom="2.2994646"
   inkscape:cx="249.14865"
   inkscape:cy="118.03785"
   inkscape:window-x="-8"
   inkscape:window-y="-8"
   inkscape:window-maximized="1"
   inkscape:current-layer="g8693" />
 <defs
   id="defs8237"><linearGradient
     id="linearGradient13353"
     inkscape:collect="always"><stop
       id="stop13355"
       offset="0"
       style="stop-color:#000000;stop-opacity:1;" /><stop
       id="stop13357"
       offset="1"
       style="stop-color:#000000;stop-opacity:0.19911504" /></linearGradient><linearGradient
     id="linearGradient6166"
     inkscape:collect="always"><stop
       id="stop6168"
       offset="0"
       style="stop-color:#000000;stop-opacity:0.88053097" /><stop
       id="stop6170"
       offset="1"
       style="stop-color:#000000;stop-opacity:0.0619469" /></linearGradient><linearGradient
     id="linearGradient6172"><stop
       id="stop6196"
       offset="0"
       style="stop-color:#000000;stop-opacity:0.57254902;" /><stop
       style="stop-color:#000000;stop-opacity:0.1460177"
       offset="1"
       id="stop6176" /></linearGradient><linearGradient
     inkscape:collect="always"
     id="linearGradient6208"><stop
       style="stop-color:#000000;stop-opacity:1;"
       offset="0"
       id="stop6210" /><stop
       style="stop-color:#000000;stop-opacity:0;"
       offset="1"
       id="stop6212" /></linearGradient><linearGradient
     id="linearGradient6218"
     inkscape:collect="always"><stop
       id="stop6220"
       offset="0"
       style="stop-color:#ffffff;stop-opacity:0.38495575" /><stop
       style="stop-color:#a9a9a9;stop-opacity:0"
       offset="0.52295345"
       id="stop6222" /><stop
       id="stop6224"
       offset="1"
       style="stop-color:#000000;stop-opacity:0.69911504" /></linearGradient><linearGradient
     id="linearGradient11124-4"><stop
       id="stop11126-7"
       style="stop-color:#ffffff;stop-opacity:1"
       offset="0" /><stop
       id="stop11134-3"
       style="stop-color:#ffffff;stop-opacity:0"
       offset="0.31011808" /><stop
       id="stop11128-4"
       style="stop-color:#ffffff;stop-opacity:0"
       offset="1" /></linearGradient><linearGradient
     inkscape:collect="always"
     xlink:href="#linearGradient6166"
     id="linearGradient6574"
     gradientUnits="userSpaceOnUse"
     gradientTransform="translate(-153.35339,59.299073)"
     x1="212.29823"
     y1="160.72443"
     x2="211.07268"
     y2="74.542717" /><linearGradient
     inkscape:collect="always"
     xlink:href="#linearGradient6208"
     id="linearGradient6576"
     gradientUnits="userSpaceOnUse"
     x1="385.80933"
     y1="192.19873"
     x2="385.80933"
     y2="-3.6902666" /><linearGradient
     inkscape:collect="always"
     xlink:href="#linearGradient13353"
     id="linearGradient6578"
     gradientUnits="userSpaceOnUse"
     x1="385.80933"
     y1="192.19873"
     x2="385.80933"
     y2="-3.6902666" /><linearGradient
     inkscape:collect="always"
     xlink:href="#linearGradient6172"
     id="linearGradient6580"
     gradientUnits="userSpaceOnUse"
     x1="58.707104"
     y1="208.97049"
     x2="58.707104"
     y2="146.97569" /><linearGradient
     inkscape:collect="always"
     xlink:href="#linearGradient6218"
     id="linearGradient6582"
     gradientUnits="userSpaceOnUse"
     x1="385.80933"
     y1="-2.1101761"
     x2="385.80933"
     y2="190.61865" /><linearGradient
     inkscape:collect="always"
     xlink:href="#linearGradient11124-4"
     id="linearGradient6584"
     gradientUnits="userSpaceOnUse"
     gradientTransform="translate(-0.3572976,0.3903901)"
     x1="38.668976"
     y1="139.22398"
     x2="74.108589"
     y2="217.09019" /></defs>
 
 <g
   transform="matrix(1.4048034,0,0,1.4048153,-20.144254,-22.987808)"
   id="g8693">
  
  
  
  
  
  
 <g
   transform="translate(-0.5467848,-117.47821)"
   id="g13297"><g
     id="g13299"
     transform="translate(-214.80176,135.18877)"
     inkscape:label="#g10515"><path
       sodipodi:type="arc"
       style="fill:#00ff00;fill-opacity:1;fill-rule:nonzero;stroke:none;stroke-width:1.5;marker:none;visibility:visible;display:inline;overflow:visible;enable-background:accumulate"
       id="bgColor00"
       sodipodi:cx="385.80933"
       sodipodi:cy="94.254234"
       sodipodi:rx="100.23305"
       sodipodi:ry="96.36441"
       d="m 486.04237,94.254234 c 0,53.220596 -44.87586,96.364406 -100.23304,96.364406 -55.35719,0 -100.23305,-43.14381 -100.23305,-96.364406 0,-53.220594 44.87586,-96.3644101 100.23305,-96.3644101 55.35718,0 100.23304,43.1438161 100.23304,96.3644101 z"
       transform="matrix(0.4273558,0,0,0.4445123,108.78159,-0.1141804)" /></g><path
     id="path13303"
     d="m 57.708169,133.84179 c -23.65721,0 -42.82183,19.1865 -42.82183,42.84371 0,23.65721 19.16462,42.84371 42.82183,42.84371 23.65721,0 42.844081,-19.1865 42.844081,-42.84371 0,-23.65721 -19.186871,-42.84371 -42.844081,-42.84371 z m 0,12.52389 c 17.29703,0 31.32111,14.02381 31.32111,31.32084 0,17.29703 -14.02408,31.32084 -31.32111,31.32084 -17.29703,0 -31.29886,-14.02381 -31.29886,-31.32084 0,-17.29703 14.00183,-31.32084 31.29886,-31.32084 z"
     style="opacity:0.6504425;fill:url(#linearGradient6574);fill-opacity:1;fill-rule:nonzero;stroke:none;stroke-width:1.5;marker:none;visibility:visible;display:inline;overflow:visible;enable-background:accumulate" /><g
     id="g13305"
     style="stroke:url(#linearGradient6580);stroke-width:1.00013566;stroke-miterlimit:4;stroke-opacity:1;stroke-dasharray:none"
     transform="matrix(0.982509,0,0,0.982509,-0.0444718,2.8288067)"><path
       sodipodi:type="arc"
       style="fill:none;stroke:url(#linearGradient6576);stroke-width:2.98853278;stroke-miterlimit:4;stroke-opacity:1;stroke-dasharray:none;marker:none;visibility:visible;display:inline;overflow:visible;enable-background:accumulate"
       id="path13307"
       sodipodi:cx="385.80933"
       sodipodi:cy="94.254234"
       sodipodi:rx="100.23305"
       sodipodi:ry="96.36441"
       d="m 486.04237,94.254234 c 0,53.220596 -44.87586,96.364406 -100.23304,96.364406 -55.35719,0 -100.23305,-43.14381 -100.23305,-96.364406 0,-53.220594 44.87586,-96.3644101 100.23305,-96.3644101 55.35718,0 100.23304,43.1438161 100.23304,96.3644101 z"
       transform="matrix(0.3042642,0,0,0.3164792,-58.391695,148.28818)" /><path
       transform="matrix(0.119951,0,0,0.1247665,12.51181,167.05129)"
       d="m 486.04237,94.254234 c 0,53.220596 -44.87586,96.364406 -100.23304,96.364406 -55.35719,0 -100.23305,-43.14381 -100.23305,-96.364406 0,-53.220594 44.87586,-96.3644101 100.23305,-96.3644101 55.35718,0 100.23304,43.1438161 100.23304,96.3644101 z"
       sodipodi:ry="96.36441"
       sodipodi:rx="100.23305"
       sodipodi:cy="94.254234"
       sodipodi:cx="385.80933"
       id="path13349"
       style="fill:none;stroke:url(#linearGradient6578);stroke-width:2.98853278;stroke-miterlimit:4;stroke-opacity:1;stroke-dasharray:none;marker:none;visibility:visible;display:inline;overflow:visible;enable-background:accumulate"
       sodipodi:type="arc" /></g><path
     transform="matrix(0.4258484,0,0,0.4444186,-106.48992,134.86552)"
     d="m 486.04237,94.254234 c 0,53.220596 -44.87586,96.364406 -100.23304,96.364406 -55.35719,0 -100.23305,-43.14381 -100.23305,-96.364406 0,-53.220594 44.87586,-96.3644101 100.23305,-96.3644101 55.35718,0 100.23304,43.1438161 100.23304,96.3644101 z"
     sodipodi:ry="96.36441"
     sodipodi:rx="100.23305"
     sodipodi:cy="94.254234"
     sodipodi:cx="385.80933"
     id="path13309"
     style="fill:url(#linearGradient6582);fill-opacity:1;fill-rule:nonzero;stroke:none;stroke-width:0;marker:none;visibility:visible;display:inline;overflow:visible;enable-background:accumulate"
     sodipodi:type="arc" /><path
     d="m 58.490432,134.51631 c -23.65721,0 -42.82183,19.1865 -42.82183,42.84371 0,23.65722 19.16462,42.84372 42.82183,42.84372 23.6572,0 42.844078,-19.1865 42.844078,-42.84372 0,-23.65721 -19.186878,-42.84371 -42.844078,-42.84371 l 0,0 z m 0,12.52389 c 17.29702,0 31.3211,14.02381 31.3211,31.32084 0,17.29704 -14.02408,31.32085 -31.3211,31.32085 -17.29703,0 -31.29886,-14.02381 -31.29886,-31.32085 0,-17.29703 14.00183,-31.32084 31.29886,-31.32084 z"
     id="path13313"
     style="fill:url(#linearGradient6584);fill-opacity:1;fill-rule:nonzero;stroke:none;stroke-width:1.5;marker:none;visibility:visible;display:inline;overflow:visible;enable-background:accumulate" /><path
     id="path10561"
     d="m 54.148828,149.25778 c -13.33409,1.65238 -22.78726,14.00082 -21.10379,27.5856 0.0833,0.67191 0.3087,1.28828 0.44216,1.94015 -0.0454,-1.01523 -0.15951,-2.04617 -0.0851,-3.03791 0.12319,-1.64108 0.41259,-3.24189 0.84111,-4.78898 0.42853,-1.5471 1.00706,-3.03256 1.71265,-4.44868 0.70559,-1.41613 1.55245,-2.76096 2.50682,-4.00914 0.95437,-1.24816 2.00733,-2.39956 3.18221,-3.44279 1.17489,-1.04324 2.45728,-1.98135 3.8244,-2.78267 1.36713,-0.80133 2.81673,-1.47335 4.34781,-1.99577 1.53108,-0.52243 3.1519,-0.88372 4.81866,-1.09027 1.66677,-0.20654 3.30468,-0.24908 4.91697,-0.11618 1.61229,0.13289 3.20416,0.42801 4.72553,0.87139 1.52137,0.44337 2.97189,1.04282 4.36589,1.76772 1.394,0.72489 2.71823,1.5817 3.94841,2.55916 1.23018,0.97746 2.37969,2.0749 3.40961,3.27596 1.02992,1.20105 1.95355,2.50037 2.74676,3.89607 0.7932,1.39569 1.44253,2.88017 1.96257,4.44154 0.31436,0.94384 0.47727,1.96816 0.68113,2.96405 -0.0297,-0.66445 0.0384,-1.31777 -0.0448,-1.98939 -1.68347,-13.58478 -13.86493,-23.25224 -27.19902,-21.59986 l 2e-5,0 z"
     style="opacity:0.8;fill:#ffffff;fill-opacity:1;fill-rule:nonzero;stroke:none;stroke-width:1.04400003;marker:none;visibility:visible;display:inline;overflow:visible;enable-background:accumulate" /></g></g>
</svg>