<?xml version="1.0" encoding="UTF-8" standalone="no"?>
<!-- Created with Inkscape (http://www.inkscape.org/) -->
<svg
   xmlns:dc="http://purl.org/dc/elements/1.1/"
   xmlns:cc="http://creativecommons.org/ns#"
   xmlns:rdf="http://www.w3.org/1999/02/22-rdf-syntax-ns#"
   xmlns:svg="http://www.w3.org/2000/svg"
   xmlns="http://www.w3.org/2000/svg"
   xmlns:xlink="http://www.w3.org/1999/xlink"
   xmlns:sodipodi="http://sodipodi.sourceforge.net/DTD/sodipodi-0.dtd"
   xmlns:inkscape="http://www.inkscape.org/namespaces/inkscape"
   version="1.0"
   width="100%"
   height="100%"
   viewBox="0 0 120.89482 119.34722"
   id="Livello_1"
   xml:space="preserve"
   style="overflow:visible"
   inkscape:version="0.46"
   sodipodi:docname="li_rrect_pointy1.svg"
   sodipodi:version="0.32"
   inkscape:output_extension="org.inkscape.output.svg.inkscape"><metadata
   id="metadata3402"><rdf:RDF><cc:Work
       rdf:about=""><dc:format>image/svg+xml</dc:format><dc:type
         rdf:resource="http://purl.org/dc/dcmitype/StillImage" /></cc:Work></rdf:RDF></metadata><sodipodi:namedview
   pagecolor="#ffffff"
   bordercolor="#666666"
   borderopacity="1"
   objecttolerance="10"
   gridtolerance="10"
   guidetolerance="10"
   inkscape:pageopacity="0"
   inkscape:pageshadow="2"
   inkscape:window-width="1440"
   inkscape:window-height="850"
   id="namedview3400"
   showgrid="false"
   inkscape:zoom="9.7946678"
   inkscape:cx="65.373062"
   inkscape:cy="23.459301"
   inkscape:window-x="-8"
   inkscape:window-y="-8"
   inkscape:window-maximized="1"
   inkscape:current-layer="g9180" /><defs
   id="defs10002"><linearGradient
     id="linearGradient33712"><stop
       id="stop33714"
       style="stop-color:#ffffff;stop-opacity:0.40265486"
       offset="0" /><stop
       id="stop33716"
       style="stop-color:#7c7c7c;stop-opacity:0"
       offset="0.51341891" /><stop
       id="stop33718"
       style="stop-color:#000000;stop-opacity:0.12831858"
       offset="1" /></linearGradient><linearGradient
     id="linearGradient33671"><stop
       id="stop33673"
       style="stop-color:#000000;stop-opacity:0.70353985"
       offset="0" /><stop
       id="stop33675"
       style="stop-color:#000000;stop-opacity:0.0840708"
       offset="1" /></linearGradient><linearGradient
     id="linearGradient32449"><stop
       id="stop32451"
       style="stop-color:#000000;stop-opacity:1"
       offset="0" /><stop
       id="stop32453"
       style="stop-color:#000000;stop-opacity:0.34513274"
       offset="1" /></linearGradient><linearGradient
     id="linearGradient9888"><stop
       id="stop9890"
       style="stop-color:#ffffff;stop-opacity:0.4778761"
       offset="0" /><stop
       id="stop9892"
       style="stop-color:#ffffff;stop-opacity:0"
       offset="1" /></linearGradient><linearGradient
     id="linearGradient9882"><stop
       id="stop9884"
       style="stop-color:#ffffff;stop-opacity:0.19469027"
       offset="0" /><stop
       id="stop9886"
       style="stop-color:#ffffff;stop-opacity:0.21238938"
       offset="1" /></linearGradient><linearGradient
     id="linearGradient9870"><stop
       id="stop9872"
       style="stop-color:#000000;stop-opacity:0.60619467"
       offset="0" /><stop
       id="stop9874"
       style="stop-color:#000000;stop-opacity:0"
       offset="1" /></linearGradient><linearGradient
     id="linearGradient9858"><stop
       id="stop9860"
       style="stop-color:#ffffff;stop-opacity:0.62831861"
       offset="0" /><stop
       id="stop9862"
       style="stop-color:#ffffff;stop-opacity:0"
       offset="1" /></linearGradient><linearGradient
     id="linearGradient9844"><stop
       id="stop9846"
       style="stop-color:#000000;stop-opacity:0.55309737"
       offset="0" /><stop
       id="stop9848"
       style="stop-color:#000000;stop-opacity:0"
       offset="1" /></linearGradient><linearGradient
     id="linearGradient9834"><stop
       id="stop9836"
       style="stop-color:#ffffff;stop-opacity:0.3761062"
       offset="0" /><stop
       id="stop9838"
       style="stop-color:#ffffff;stop-opacity:0.21238938"
       offset="1" /></linearGradient><linearGradient
     id="linearGradient9822"><stop
       id="stop9824"
       style="stop-color:#ffffff;stop-opacity:0.90707964"
       offset="0" /><stop
       id="stop9826"
       style="stop-color:#ffffff;stop-opacity:0.21238938"
       offset="1" /></linearGradient><linearGradient
     id="linearGradient11883"><stop
       id="stop11885"
       style="stop-color:#000000;stop-opacity:1"
       offset="0" /><stop
       id="stop11887"
       style="stop-color:#000000;stop-opacity:0.30530974"
       offset="1" /></linearGradient><linearGradient
     x1="-139.18729"
     y1="200.23105"
     x2="-139.18729"
     y2="81.309853"
     id="linearGradient9258"
     xlink:href="#linearGradient33671"
     gradientUnits="userSpaceOnUse"
     gradientTransform="translate(-2,0)" /><linearGradient
     x1="-132.41675"
     y1="183.61917"
     x2="-132.16658"
     y2="98.176208"
     id="linearGradient9272"
     xlink:href="#linearGradient32449"
     gradientUnits="userSpaceOnUse" /><linearGradient
     x1="-136.37024"
     y1="159.21152"
     x2="-136.36769"
     y2="122.30654"
     id="linearGradient9290"
     xlink:href="#linearGradient11883"
     gradientUnits="userSpaceOnUse" /><linearGradient
     x1="-141.17197"
     y1="96.583954"
     x2="-139.72588"
     y2="184.67038"
     id="linearGradient9308"
     xlink:href="#linearGradient33712"
     gradientUnits="userSpaceOnUse"
     gradientTransform="matrix(1.3211595,0,0,1.3325009,46.534957,-41.069888)" /><linearGradient
     x1="-174.03416"
     y1="32.737995"
     x2="-118.48552"
     y2="86.644798"
     id="linearGradient9828"
     xlink:href="#linearGradient9822"
     gradientUnits="userSpaceOnUse" /><linearGradient
     x1="-174.03416"
     y1="32.737995"
     x2="-118.48552"
     y2="86.644798"
     id="linearGradient9832"
     xlink:href="#linearGradient9834"
     gradientUnits="userSpaceOnUse"
     gradientTransform="matrix(-1,0,0,1,-257.2835,53.07133)" /><linearGradient
     x1="-84.343895"
     y1="195.81204"
     x2="-138.66116"
     y2="140.67387"
     id="linearGradient9850"
     xlink:href="#linearGradient9844"
     gradientUnits="userSpaceOnUse" /><linearGradient
     x1="-174.03416"
     y1="32.737995"
     x2="-118.48552"
     y2="86.644798"
     id="linearGradient9854"
     xlink:href="#linearGradient9882"
     gradientUnits="userSpaceOnUse"
     gradientTransform="matrix(1,0,0,-1,-21.407016,227.72913)" /><linearGradient
     x1="-119.30643"
     y1="28.359777"
     x2="-118.3487"
     y2="82.813858"
     id="linearGradient9864"
     xlink:href="#linearGradient9858"
     gradientUnits="userSpaceOnUse" /><linearGradient
     x1="-137.42978"
     y1="199.09572"
     x2="-139.75572"
     y2="140.81068"
     id="linearGradient9876"
     xlink:href="#linearGradient9870"
     gradientUnits="userSpaceOnUse" /><linearGradient
     x1="-119.30643"
     y1="28.359777"
     x2="-118.3487"
     y2="82.813858"
     id="linearGradient9880"
     xlink:href="#linearGradient9888"
     gradientUnits="userSpaceOnUse"
     gradientTransform="matrix(0,-1,1,0,-226.53734,20.409693)" /><linearGradient
     x1="-137.42978"
     y1="199.09572"
     x2="-139.75572"
     y2="140.81068"
     id="linearGradient9896"
     xlink:href="#linearGradient9870"
     gradientUnits="userSpaceOnUse"
     gradientTransform="matrix(0,-1,1,0,-280.15594,0.64451171)" /></defs>
 
 
<g
   transform="translate(197.51683,-85.812025)"
   id="g9180"><path
     d="m -185.92516,203.83414 c -3.46733,-1.23607 -6.60089,-4.18116 -8.25878,-7.76204 -1.22714,-2.6505 -1.30353,-5.59115 -1.31809,-50.7396 l -0.0154,-47.926024 1.95848,-3.74896 c 1.58545,-3.03491 2.67253,-4.12198 5.70744,-5.70744 l 3.74895,-1.95848 47.92604,0.0155 c 44.835927,0.0144 48.107837,0.098 50.745637,1.29636 3.54613,1.61098 7.08046,5.58631 8.04066,9.04397 1.050638,3.783364 1.011318,94.519234 -0.0426,98.315614 -0.45781,1.64905 -1.98377,4.01457 -3.6912,5.722 -1.70743,1.70742 -4.07294,3.23339 -5.72199,3.69119 -4.49795,1.2487 -95.521127,1.02634 -99.079107,-0.24204 l 3e-5,0 z"
     id="bgcolor00"
     style="color:#000000;fill:#00ff00;fill-opacity:1;fill-rule:nonzero;stroke:none;stroke-width:0.40000001;marker:none;visibility:visible;display:inline;overflow:visible;enable-background:accumulate"
     inkscape:label="#path9182" /><g
     transform="translate(3.1198173,4.9281945)"
     id="g9184"><path
       d="m -189.2304,81.309852 -3.75,1.96875 c -3.03491,1.58546 -4.10205,2.65259 -5.6875,5.6875 l -1.96875,3.75 0,47.937498 c 0.0146,45.14845 0.11661,48.0995 1.34375,50.75 1.65789,3.58088 4.78267,6.51393 8.25,7.75 3.55798,1.26838 94.564547,1.4987 99.062497,0.25 1.64905,-0.4578 4.04257,-1.98008 5.75,-3.6875 1.70743,-1.70743 3.22969,-4.0697 3.6875,-5.71875 1.05391,-3.79638 1.08188,-94.560388 0.03125,-98.343748 -0.9602,-3.45766 -4.48512,-7.42027 -8.03125,-9.03125 -2.6378,-1.19836 -5.91408,-1.26685 -50.749997,-1.28125 l -47.9375,-0.03125 z m 12.59375,14.78125 35.71875,0 c 33.43106,0.01074 35.87693,0.07521 37.84375,0.96875 2.64411,1.201198 5.284057,4.171858 5.999997,6.749998 0.78339,2.82099 0.75462,70.4818 -0.03125,73.3125 -0.34137,1.22959 -1.47689,2.97689 -2.75,4.25 -1.273107,1.27311 -3.051657,2.40865 -4.281247,2.75 -3.35381,0.93107 -71.22205,0.75825 -73.875,-0.1875 -2.58534,-0.92166 -4.92008,-3.11124 -6.15625,-5.78125 -0.915,-1.9763 -0.95789,-4.1484 -0.96875,-37.8125 l -0.0312,-35.75 1.46875,-2.78125 c 1.18216,-2.262922 1.98708,-3.099079 4.25,-4.281248 l 2.8125,-1.4375 z"
       id="path9186"
       style="color:#000000;fill:url(#linearGradient9258);fill-opacity:1;fill-rule:nonzero;stroke:none;stroke-width:0.40000001;marker:none;visibility:visible;display:inline;overflow:visible;enable-background:accumulate" /><g
       transform="translate(-2,0)"
       id="g9188"><path
         d="m -174.79757,182.42914 c -2.46644,-0.87928 -4.69548,-2.97424 -5.87478,-5.52146 -0.87294,-1.8854 -0.92727,-3.9772 -0.93763,-36.09311 l -0.0109,-34.0917 1.39316,-2.66678 c 1.12779,-2.15886 1.90106,-2.93213 4.05992,-4.059931 l 2.66677,-1.393144 34.09171,0.01103 c 31.89358,0.01024 34.22103,0.0697 36.0974,0.922152 2.5225,1.145963 5.036611,3.973773 5.719639,6.433343 0.747363,2.69125 0.719393,67.23529 -0.0303,69.93583 -0.325657,1.17303 -1.411135,2.85572 -2.625699,4.07028 -1.21457,1.21454 -2.89724,2.30001 -4.07029,2.62567 -3.19954,0.88828 -67.94799,0.73008 -70.47891,-0.17216 l 3e-5,0 z"
         id="path9202"
         style="color:#000000;fill:none;stroke:url(#linearGradient9272);stroke-width:0.85360789;stroke-miterlimit:4;stroke-opacity:1;stroke-dasharray:none;marker:none;visibility:visible;display:inline;overflow:visible;enable-background:accumulate" /><path
         d="m -154.51131,158.69531 c -1.06527,-0.37976 -2.02798,-1.28458 -2.53732,-2.38474 -0.37701,-0.81429 -0.40049,-1.71773 -0.40495,-15.58858 l -0.007,-14.72418 0.60174,-1.15177 c 0.48707,-0.93241 0.82106,-1.26638 1.75346,-1.75348 l 1.15178,-0.60168 14.72417,0.007 c 13.77483,0.007 14.78005,0.0301 15.59046,0.39828 1.08946,0.49494 2.1753,1.71628 2.47031,2.77857 0.32278,1.16234 0.3107,29.03886 -0.013,30.20521 -0.14065,0.50664 -0.60948,1.23341 -1.13404,1.75796 -0.52456,0.52458 -1.25131,0.99339 -1.75796,1.13404 -1.38185,0.38363 -29.34668,0.3153 -30.43978,-0.0745 l 1e-5,0 z"
         id="path9222"
         style="color:#000000;fill:none;stroke:url(#linearGradient9290);stroke-width:0.36867261;stroke-miterlimit:4;stroke-opacity:1;stroke-dasharray:none;marker:none;visibility:visible;display:inline;overflow:visible;enable-background:accumulate" /></g><g
       transform="matrix(0.98117318,0,0,1,-3.7465088,5.689455e-8)"
       id="g9224"><path
         d="m -177.70029,39.57896 59.21477,47.065842 -47.99715,-58.244997 c 0,0 -4.92682,2.093729 -6.84252,4.051187 -2.55657,2.612291 -4.3751,7.127968 -4.3751,7.127968 z"
         transform="translate(-20.859735,53.07133)"
         id="path9310"
         style="fill:url(#linearGradient9828);fill-opacity:1;stroke:none" /><path
         d="m -79.692042,92.65029 -59.105938,47.06584 48.160398,-58.8323 c 0,0 5.23718,2.111734 7.1146,4.104579 1.95799,2.078377 3.83094,7.661881 3.83094,7.661881 z"
         id="path9830"
         style="fill:url(#linearGradient9832);fill-opacity:1;stroke:none" /><path
         d="m -91.595321,199.77981 -47.065839,-59.10594 58.832299,48.1604 c 0,0 -2.111734,5.23718 -4.104579,7.1146 -2.078377,1.95799 -7.661881,3.83094 -7.661881,3.83094 z"
         id="path9840"
         style="fill:url(#linearGradient9850);fill-opacity:1;stroke:none" /><path
         d="m -198.12783,187.66965 58.23529,-46.58532 -47.61624,58.35178 c 0,0 -3.98453,-0.51091 -7.16902,-4.15797 -4.16155,-4.76606 -3.45003,-7.60849 -3.45003,-7.60849 z"
         id="path9852"
         style="fill:url(#linearGradient9854);fill-opacity:1;stroke:none" /><path
         d="M -167.1932,27.8125 -118.21188,86.097525 -69.504208,28.086138 -167.1932,27.8125 z"
         transform="translate(-20.859735,53.07133)"
         id="path9856"
         style="fill:url(#linearGradient9864);fill-opacity:1;stroke:none" /><path
         d="m -187.61916,199.4895 48.82119,-58.95246 47.065834,59.10595 -95.887024,-0.15349 z"
         id="path9866"
         style="fill:url(#linearGradient9876);fill-opacity:1;stroke:none" /><path
         d="m -198.12471,187.66296 58.77944,-46.85228 -59.26918,-48.287222 0.48974,95.139502 z"
         id="path9878"
         style="fill:url(#linearGradient9880);fill-opacity:1;stroke:none" /><path
         d="m -80.239312,188.69744 -59.379588,-49.25496 59.105948,-46.244914 0.27364,95.499874 z"
         id="path9894"
         style="fill:url(#linearGradient9896);fill-opacity:1;stroke:none" /></g></g><path
     d="m -187.17767,203.93752 c -3.41565,-1.22811 -6.50254,-4.15422 -8.13571,-7.71201 -1.20885,-2.63342 -1.2841,-5.55512 -1.29844,-50.41257 l -0.0152,-47.617108 1.9293,-3.724793 c 1.56181,-3.015342 2.6327,-4.095401 5.62239,-5.670644 l 3.69306,-1.945851 47.21186,0.01533 c 44.167763,0.01425 47.390926,0.0974 49.989423,1.287995 3.493281,1.6006 6.974939,5.550306 7.920818,8.98568 1.034977,3.758971 0.99624,93.909991 -0.04207,97.681901 -0.451011,1.63843 -1.954227,3.9887 -3.636201,5.68512 -1.681975,1.69641 -4.012235,3.21254 -5.636723,3.66741 -4.430929,1.24064 -94.097647,1.01972 -97.602607,-0.2405 l 4e-5,0 z"
     id="path9242"
     style="color:#000000;fill:url(#linearGradient9308);fill-opacity:1;fill-rule:nonzero;stroke:none;stroke-width:0.40000001;marker:none;visibility:visible;display:inline;overflow:visible;enable-background:accumulate" /><path
     d="m -173.59626,101.29742 -2.43322,1.15304 c -2.1681,1.75109 -2.68855,2.17672 -4.62928,4.53446 l -1.46875,2.8125 0,10.0625 c 0,0 1.28787,-7.20943 3.20572,-10.22147 3.19762,-5.02195 5.72775,-5.58537 5.72775,-5.58537 l 70.85185,-0.18597 c 0,0 1.12844,-0.88453 5.617387,6.02052 1.895482,2.9157 3.06604,9.97229 3.06604,9.97229 -0.0944,-5.59238 -0.2012,-10.21789 -0.375,-10.84375 -0.71594,-2.57814 -3.3559,-5.5488 -5.999997,-6.75 -1.96683,-0.8935 -4.41269,-0.95805 -37.84375,-0.96875 l -35.71875,0 z"
     id="path12907"
     style="color:#000000;fill:#ffffff;fill-opacity:1;fill-rule:nonzero;stroke:none;stroke-width:0.40000001;marker:none;visibility:visible;display:inline;overflow:visible;enable-background:accumulate" /></g></svg>