<?xml version="1.0" encoding="utf-8"?>
<!-- Generator: Adobe Illustrator 13.0.0, SVG Export Plug-In . SVG Version: 6.00 Build 14948)  -->
<!DOCTYPE svg PUBLIC "-//W3C//DTD SVG 1.0//EN" "http://www.w3.org/TR/2001/REC-SVG-20010904/DTD/svg10.dtd">
<svg version="1.0" id="Layer_1" xmlns="http://www.w3.org/2000/svg" xmlns:xlink="http://www.w3.org/1999/xlink" x="0px" y="0px"
	 width="135.035px" height="135.031px" viewBox="0 0 135.035 135.031" enable-background="new 0 0 135.035 135.031"
	 xml:space="preserve">
<g>
	<path fill="#1F8AFF" d="M125.477,22.669c0,0,0.063-3.817-1.744-5.785L109.934,3.336l0.004,0.053
		c0.004,0.004,0.004,0.008,0.006,0.011C107.691,1.296,104.682,0,101.355,0H33.678c-3.322,0-6.336,1.296-8.584,3.399
		c0-0.003,0.004-0.007,0.008-0.011V3.336L11.307,16.885c-1.809,1.968-1.75,5.785-1.75,5.785l-0.004,88.454l0.004-0.003v3.682
		c0.219,5.906,5.035,10.645,10.949,10.645h94.021c5.914,0,10.73-4.739,10.953-10.645v-3.682v0.003L125.477,22.669z"/>
	<g>
		<linearGradient id="SVGID_1_" gradientUnits="userSpaceOnUse" x1="67.5186" y1="48.9102" x2="67.5186" y2="96.4196">
			<stop  offset="0" style="stop-color:#EEEEEE"/>
			<stop  offset="1" style="stop-color:#B2B2B2"/>
		</linearGradient>
		<path fill="url(#SVGID_1_)" d="M113.955,80.278c0,6.958-5.641,12.594-12.6,12.594H33.678c-6.955,0-12.596-5.637-12.596-12.594
			v-67.68C21.082,5.639,26.723,0,33.678,0h67.678c6.959,0,12.6,5.639,12.6,12.598V80.278z"/>
		<linearGradient id="SVGID_2_" gradientUnits="userSpaceOnUse" x1="67.5186" y1="97.9858" x2="67.5185" y2="-5.495">
			<stop  offset="0.118" style="stop-color:#EEEEEE"/>
			<stop  offset="1" style="stop-color:#CCCCCC"/>
		</linearGradient>
		<path opacity="0.9" fill="url(#SVGID_2_)" d="M101.355,0H33.678c-6.955,0-12.596,5.639-12.596,12.598v67.68
			c0,6.958,5.641,12.594,12.596,12.594h67.678c6.959,0,12.6-5.637,12.6-12.594v-67.68C113.955,5.639,108.314,0,101.355,0z
			 M111.719,80.278c0,5.713-4.65,10.361-10.363,10.361H33.678c-5.713,0-10.359-4.647-10.359-10.361v-67.68
			c0-2.767,1.08-5.371,3.033-7.328c1.955-1.956,4.557-3.033,7.326-3.033h67.678c2.77,0,5.371,1.077,7.328,3.033
			c1.957,1.957,3.035,4.561,3.035,7.328V80.278z"/>
		<path opacity="0.45" fill="#FFFFFF" d="M98.4,5.218H36.91c-2.514,0-4.875,0.98-6.65,2.757c-1.781,1.778-2.758,4.143-2.758,6.657
			v21.667c11.059,4.702,24.516,7.491,39.068,7.491c15.529,0,29.805-3.167,41.246-8.45V14.631c0-2.514-0.977-4.879-2.758-6.657
			C103.283,6.198,100.918,5.218,98.4,5.218z"/>
		<path opacity="0.8" fill="#FFFFFF" d="M111.543,81.292c-1.256,4.398-5.264,7.433-10.188,7.433H33.678
			c-4.813,0-8.449-3.227-9.955-7.014l-1.74,2.945c1.85,4.365,6.383,8.215,11.695,8.215h67.678c5.732,0,10.561-4.476,12.082-9.249
			L111.543,81.292z"/>
		<linearGradient id="SVGID_3_" gradientUnits="userSpaceOnUse" x1="31.0742" y1="56.9946" x2="12.6681" y2="57.3094">
			<stop  offset="0" style="stop-color:#C7C7C7"/>
			<stop  offset="1" style="stop-color:#858585"/>
		</linearGradient>
		<path fill="url(#SVGID_3_)" d="M21.082,80.278v-67.68c0-3.642,1.553-6.908,4.02-9.209V3.336L11.307,16.885
			c-1.809,1.968-1.75,5.785-1.75,5.785l-0.004,88.454l12.379-26.331C21.389,83.39,21.082,81.872,21.082,80.278z"/>
		
			<linearGradient id="SVGID_4_" gradientUnits="userSpaceOnUse" x1="2840.0459" y1="56.9946" x2="2821.6418" y2="57.3094" gradientTransform="matrix(-1 0 0 1 2944.0078 0)">
			<stop  offset="0" style="stop-color:#C7C7C7"/>
			<stop  offset="1" style="stop-color:#858585"/>
		</linearGradient>
		<path fill="url(#SVGID_4_)" d="M113.955,12.598v67.68c0,1.594-0.309,3.112-0.848,4.514l12.373,26.331l-0.004-88.454
			c0,0,0.063-3.817-1.744-5.785L109.934,3.336l0.004,0.053C112.404,5.69,113.955,8.956,113.955,12.598z"/>
		<linearGradient id="SVGID_5_" gradientUnits="userSpaceOnUse" x1="67.5186" y1="91.1768" x2="67.5186" y2="134.5607">
			<stop  offset="0" style="stop-color:#CFCFCF"/>
			<stop  offset="0.7079" style="stop-color:#828282"/>
			<stop  offset="1" style="stop-color:#000000"/>
		</linearGradient>
		<path fill="url(#SVGID_5_)" d="M113.107,84.792c-1.822,4.725-6.385,8.08-11.752,8.08H33.678c-5.363,0-9.932-3.355-11.746-8.08
			L9.557,111.118v3.684c0.219,5.906,5.035,10.645,10.949,10.645h94.021c5.914,0,10.73-4.739,10.953-10.645v-3.684L113.107,84.792z"
			/>
	</g>
	<g>
		<g>
			<path opacity="0.2" fill="#4D4D4D" d="M114.527,5.537h-2.283l5.461,5.361c0.645,0.523,1.246,1.119,1.775,1.65
				c0.271,0.275,0.516,0.622,0.738,0.993c0.455,0.709,0.754,1.523,0.941,2.309c0.258,0.949,0.4,1.914,0.4,2.727v95.801
				c0,3.928-3.156,7.125-7.033,7.125H20.506c-3.877,0-7.027-3.197-7.027-7.125V18.578c0-1.913,0.734-4.68,2.076-6.029
				c0.561-0.566,1.203-1.2,1.902-1.747l5.355-5.265h-2.307c-8.242,0-14.916,6.721-14.916,15.014v93.828
				c0,8.291,6.674,15.01,14.916,15.01h94.021c8.238,0,14.918-6.719,14.918-15.01V20.551C129.445,12.258,122.766,5.537,114.527,5.537
				z"/>
			<path opacity="0.4" d="M114.527,5.539h-2.445l8.082,7.917l-0.061,0.004c0.262,0.211,0.535,0.402,0.775,0.645
				c1.709,1.718,2.648,4.006,2.648,6.446v93.83c0,5.016-4.037,9.093-9,9.093H20.506c-4.963,0-9.004-4.077-9.004-9.093v-93.83
				c0-2.393,0.916-4.633,2.566-6.34L14.027,14.2l8.811-8.661h-2.332c-8.242,0-14.916,6.719-14.916,15.012v93.83
				c0,8.291,6.674,15.008,14.916,15.008h94.021c8.238,0,14.918-6.717,14.918-15.008v-93.83
				C129.445,12.258,122.766,5.539,114.527,5.539z"/>
			<path opacity="0.9" fill="#333333" d="M114.527,5.539h-2.434l4.121,4.108c2.285,0.353,4.398,1.39,6.059,3.066
				c2.086,2.092,3.225,4.875,3.225,7.838v93.83c0,6.102-4.918,11.066-10.971,11.066H20.506c-6.049,0-10.971-4.964-10.971-11.066
				v-93.83c0-2.964,1.141-5.746,3.221-7.838c1.629-1.64,3.684-2.674,5.91-3.052l4.188-4.123h-2.348
				c-8.242,0-14.916,6.719-14.916,15.012v93.83c0,8.291,6.674,15.008,14.916,15.008h94.021c8.238,0,14.918-6.717,14.918-15.008
				v-93.83C129.445,12.258,122.766,5.539,114.527,5.539z"/>
			<path opacity="0.5" fill="#FFFFFF" d="M114.871,128.569H20.846c-8.242,0-14.914-6.717-14.914-15.007v0.783
				c0,8.29,6.672,15.009,14.914,15.009h94.025c8.234,0,14.912-6.719,14.912-15.009v-0.783
				C129.783,121.853,123.105,128.569,114.871,128.569z"/>
		</g>
		<g>
			<path opacity="0.9" fill="#333333" d="M9.557,22.669c0,0-0.059-3.817,1.75-5.785l3.723-3.66c0.168-0.247,0.346-0.48,0.543-0.676
				c0.563-0.566,1.211-1.2,1.902-1.749l1.141-1.122c-2.197,0.387-4.227,1.41-5.842,3.035c-2.076,2.092-3.221,4.874-3.221,7.838
				L9.557,22.669z"/>
			<path opacity="0.9" fill="#333333" d="M119.498,12.549c0.189,0.185,0.338,0.432,0.498,0.669l3.736,3.667
				c1.807,1.968,1.744,5.785,1.744,5.785l0.045-2.119c0-2.962-1.145-5.746-3.225-7.838c-1.596-1.608-3.611-2.608-5.783-3
				l1.209,1.186C118.369,11.421,118.969,12.015,119.498,12.549z"/>
		</g>
	</g>
	<path opacity="0.5" fill="#333333" d="M114.527,4.471h-3.438l1.139,1.119h2.299c8.238,0,14.918,6.721,14.918,15.012v93.832
		c0,8.291-6.68,15.007-14.918,15.007H20.506c-8.242,0-14.916-6.716-14.916-15.007V20.602c0-8.291,6.674-15.012,14.916-15.012h2.301
		l1.139-1.119h-3.439c-4.285,0-8.314,1.68-11.342,4.726c-3.025,3.048-4.693,7.098-4.693,11.405v93.832
		c0,8.893,7.195,16.127,16.035,16.127h94.021c8.84,0,16.037-7.234,16.037-16.127V20.602C130.564,11.709,123.367,4.471,114.527,4.471
		z"/>
	<path opacity="0.2" fill="#B2B2B2" d="M114.527,0h-13.172c3.326,0,6.336,1.296,8.588,3.399c-0.002-0.003-0.002-0.007-0.006-0.011
		l-0.004-0.053l2.295,2.254h2.299c8.238,0,14.918,6.721,14.918,15.012v93.832c0,8.291-6.68,15.007-14.918,15.007H20.506
		c-8.242,0-14.916-6.716-14.916-15.007V20.602c0-8.291,6.674-15.012,14.916-15.012h2.301l2.295-2.254v0.053
		c-0.004,0.004-0.008,0.008-0.008,0.011C27.342,1.296,30.355,0,33.678,0H20.506C15.02,0,9.867,2.146,5.994,6.049
		C2.127,9.937,0,15.105,0,20.602v93.832c0,11.357,9.199,20.598,20.506,20.598h94.021c11.307,0,20.508-9.24,20.508-20.598V20.602
		C135.035,9.242,125.834,0,114.527,0z"/>
	<g>
		<path opacity="0.4" fill="#333333" d="M109.943,3.399c-0.002-0.003-0.002-0.007-0.006-0.011l-0.002-0.034h-0.045
			C109.908,3.37,109.926,3.384,109.943,3.399z"/>
		<path opacity="0.4" fill="#333333" d="M25.102,3.354v0.034c-0.004,0.004-0.008,0.008-0.008,0.011
			c0.018-0.016,0.035-0.029,0.053-0.045H25.102z"/>
		<path opacity="0.4" fill="#333333" d="M114.527,3.354h-4.574l2.275,2.235h2.299c8.238,0,14.918,6.721,14.918,15.012v93.832
			c0,8.291-6.68,15.007-14.918,15.007H20.506c-8.242,0-14.916-6.716-14.916-15.007V20.602c0-8.291,6.674-15.012,14.916-15.012h2.301
			l2.275-2.235h-4.576c-4.588,0-8.895,1.794-12.133,5.056c-3.24,3.257-5.018,7.586-5.018,12.191v93.832
			c0,9.508,7.695,17.244,17.15,17.244h94.021c9.455,0,17.15-7.736,17.15-17.244V20.602C131.678,11.092,123.982,3.354,114.527,3.354z
			"/>
	</g>
</g>
</svg>
