<?xml version="1.0" encoding="utf-8"?>
<!-- Generator: Adobe Illustrator 13.0.0, SVG Export Plug-In . SVG Version: 6.00 Build 14948)  -->
<!DOCTYPE svg PUBLIC "-//W3C//DTD SVG 1.0//EN" "http://www.w3.org/TR/2001/REC-SVG-20010904/DTD/svg10.dtd">
<svg version="1.0" id="Layer_1" xmlns="http://www.w3.org/2000/svg" xmlns:xlink="http://www.w3.org/1999/xlink" x="0px" y="0px"
	 width="135.034px" height="135.031px" viewBox="0 0 135.034 135.031" enable-background="new 0 0 135.034 135.031"
	 xml:space="preserve">
<g>
	<path fill="#1F8AFF" d="M125.482,120.955l-0.005-88.429c0,0,0.062-3.818-1.749-5.785l-13.795-13.55v0.056
		c0.003,0.002,0.007,0.006,0.007,0.01c-2.248-2.104-5.262-3.399-8.583-3.399H33.675c-3.323,0-6.336,1.296-8.585,3.399
		c0.004-0.004,0.004-0.008,0.008-0.01l0.003-0.056l-13.798,13.55c-1.812,1.967-1.749,5.785-1.749,5.785L9.55,120.98l0.065-0.135
		c1.454,4.396,6.049,6.578,10.888,6.578h94.028c4.847,0,9.554-1.955,11.001-6.361L125.482,120.955z"/>
	<g>
		<linearGradient id="SVGID_1_" gradientUnits="userSpaceOnUse" x1="67.5151" y1="58.7681" x2="67.5151" y2="106.2785">
			<stop  offset="0" style="stop-color:#EEEEEE"/>
			<stop  offset="1" style="stop-color:#B2B2B2"/>
		</linearGradient>
		<path fill="url(#SVGID_1_)" d="M113.952,90.135c0,6.957-5.636,12.596-12.595,12.596H33.675c-6.956,0-12.597-5.639-12.597-12.596
			V22.454c0-6.957,5.641-12.597,12.597-12.597h67.683c6.959,0,12.595,5.64,12.595,12.597V90.135z"/>
		<linearGradient id="SVGID_2_" gradientUnits="userSpaceOnUse" x1="67.5151" y1="107.8447" x2="67.5151" y2="4.3617">
			<stop  offset="0.118" style="stop-color:#EEEEEE"/>
			<stop  offset="1" style="stop-color:#CCCCCC"/>
		</linearGradient>
		<path opacity="0.9" fill="url(#SVGID_2_)" d="M101.357,9.857H33.675c-6.956,0-12.597,5.64-12.597,12.597v67.682
			c0,6.957,5.641,12.596,12.597,12.596h67.683c6.959,0,12.595-5.639,12.595-12.596V22.454
			C113.952,15.497,108.316,9.857,101.357,9.857z M111.719,90.135c0,5.713-4.649,10.361-10.361,10.361H33.675
			c-5.71,0-10.358-4.648-10.358-10.361V22.454c0-2.768,1.078-5.368,3.034-7.327c1.957-1.954,4.555-3.033,7.324-3.033h67.683
			c2.768,0,5.369,1.079,7.326,3.033c1.957,1.959,3.035,4.56,3.035,7.327V90.135z"/>
		<path opacity="0.45" fill="#FFFFFF" d="M98.401,15.074H36.91c-2.514,0-4.875,0.979-6.653,2.757
			c-1.778,1.779-2.758,4.143-2.758,6.658v21.668c11.059,4.699,24.515,7.491,39.07,7.491c15.53,0,29.806-3.167,41.247-8.452V24.489
			c0-2.516-0.98-4.879-2.759-6.658C103.28,16.053,100.919,15.074,98.401,15.074z"/>
		<path opacity="0.8" fill="#FFFFFF" d="M111.544,91.15c-1.257,4.397-5.266,7.436-10.187,7.436H33.675
			c-4.813,0-8.45-3.229-9.951-7.017l-1.745,2.947c1.854,4.363,6.384,8.215,11.696,8.215h67.683c5.73,0,10.555-4.478,12.085-9.25
			L111.544,91.15z"/>
		<linearGradient id="SVGID_3_" gradientUnits="userSpaceOnUse" x1="31.0737" y1="66.8501" x2="12.6655" y2="67.1649">
			<stop  offset="0" style="stop-color:#C7C7C7"/>
			<stop  offset="1" style="stop-color:#858585"/>
		</linearGradient>
		<path fill="url(#SVGID_3_)" d="M21.078,90.135V22.454c0-3.64,1.553-6.908,4.02-9.207l0.003-0.056l-13.798,13.55
			c-1.812,1.967-1.749,5.785-1.749,5.785L9.55,120.98l12.378-26.33C21.388,93.248,21.078,91.729,21.078,90.135z"/>
		
			<linearGradient id="SVGID_4_" gradientUnits="userSpaceOnUse" x1="2430.1963" y1="66.8506" x2="2411.79" y2="67.1654" gradientTransform="matrix(-1 0 0 1 2534.1563 0)">
			<stop  offset="0" style="stop-color:#C7C7C7"/>
			<stop  offset="1" style="stop-color:#858585"/>
		</linearGradient>
		<path fill="url(#SVGID_4_)" d="M113.952,22.454v67.682c0,1.594-0.306,3.112-0.845,4.516l12.375,26.33l-0.005-88.455
			c0,0,0.062-3.818-1.749-5.785l-13.795-13.55v0.056C112.4,15.545,113.952,18.814,113.952,22.454z"/>
		<linearGradient id="SVGID_5_" gradientUnits="userSpaceOnUse" x1="67.5703" y1="99.7979" x2="67.5703" y2="134.7714">
			<stop  offset="0" style="stop-color:#CFCFCF"/>
			<stop  offset="0.6461" style="stop-color:#696969"/>
			<stop  offset="1" style="stop-color:#000000"/>
		</linearGradient>
		<path fill="url(#SVGID_5_)" d="M20.503,127.424h94.028c4.847,0,9.554-1.955,11.001-6.361l-12.425-26.412
			c-1.818,4.723-6.388,8.08-11.75,8.08H33.675c-5.363,0-9.929-3.357-11.747-8.08L9.608,120.83
			C11.055,125.236,15.657,127.424,20.503,127.424z"/>
	</g>
	<path opacity="0.8" d="M114.531,9.479H20.503c-6.049,0-10.972,4.965-10.972,11.066v15.332h0.022v-3.352
		c0,0-0.063-3.818,1.749-5.785l13.798-13.55l-0.003,0.056c-0.004,0.002-0.004,0.006-0.008,0.01c2.249-2.104,5.262-3.399,8.585-3.399
		h67.683c3.321,0,6.335,1.296,8.583,3.399c0-0.004-0.004-0.008-0.007-0.01v-0.056l13.795,13.55c1.811,1.967,1.749,5.785,1.749,5.785
		v3.706h0.025V25.049l-0.572-8.006C123.474,12.655,119.367,9.479,114.531,9.479z"/>
	<g>
		<path opacity="0.2" fill="#B2B2B2" d="M114.531,0H20.503C15.019,0,9.863,2.146,5.99,6.046C2.128,9.936,0,15.104,0,20.601v93.833
			c0,11.357,9.196,20.597,20.503,20.597h94.028c11.303,0,20.503-9.24,20.503-20.597V20.601C135.034,9.243,125.834,0,114.531,0z
			 M129.445,114.434c0,8.291-6.679,15.009-14.914,15.009H20.503c-8.238,0-14.914-6.719-14.914-15.009V20.601
			c0-8.293,6.676-15.014,14.914-15.014h94.028c8.235,0,14.914,6.721,14.914,15.014V114.434z"/>
		<path opacity="0.4" fill="#333333" d="M114.531,3.352H20.503c-4.584,0-8.895,1.796-12.134,5.057
			c-3.235,3.258-5.018,7.587-5.018,12.192v93.833c0,9.507,7.696,17.244,17.151,17.244h94.028c9.456,0,17.147-7.736,17.147-17.244
			V20.601C131.679,11.089,123.987,3.352,114.531,3.352z M129.445,114.434c0,8.291-6.679,15.009-14.914,15.009H20.503
			c-8.238,0-14.914-6.719-14.914-15.009V20.601c0-8.293,6.676-15.014,14.914-15.014h94.028c8.235,0,14.914,6.721,14.914,15.014
			V114.434z"/>
		<path opacity="0.5" fill="#333333" d="M114.531,4.471H20.503c-4.285,0-8.312,1.677-11.339,4.725
			c-3.028,3.047-4.693,7.097-4.693,11.405v93.833c0,8.892,7.192,16.126,16.032,16.126h94.028c8.84,0,16.033-7.234,16.033-16.126
			V20.601C130.564,11.708,123.371,4.471,114.531,4.471z M129.445,114.434c0,8.291-6.679,15.009-14.914,15.009H20.503
			c-8.238,0-14.914-6.719-14.914-15.009V20.601c0-8.293,6.676-15.014,14.914-15.014h94.028c8.235,0,14.914,6.721,14.914,15.014
			V114.434z"/>
	</g>
	<path opacity="0.2" fill="#4D4D4D" d="M114.531,5.536H20.503c-8.238,0-14.914,6.72-14.914,15.012v93.833
		c0,8.292,6.676,15.01,14.914,15.01h94.028c8.235,0,14.914-6.719,14.914-15.01V20.547C129.445,12.255,122.767,5.536,114.531,5.536z
		 M121.557,118.322c0,3.928-3.151,7.125-7.025,7.125H20.503c-3.877,0-7.029-3.197-7.029-7.125V20.547
		c0-3.929,3.152-7.126,7.029-7.126h4.401c2.271-2.202,5.36-3.564,8.771-3.564h67.683c3.413,0,6.503,1.362,8.769,3.564h4.405
		c3.874,0,7.025,3.197,7.025,7.126V118.322z"/>
	<path opacity="0.4" d="M114.531,5.536H20.503c-8.238,0-14.914,6.718-14.914,15.01v93.837c0,8.29,6.676,15.008,14.914,15.008h94.028
		c8.235,0,14.914-6.719,14.914-15.008V20.545C129.445,12.253,122.767,5.536,114.531,5.536z M123.528,117.406
		c0,5.016-4.037,9.094-8.997,9.094H20.503c-4.963,0-9-4.078-9-9.094V20.545c0-5.016,4.037-9.096,9-9.096h7.047
		c1.814-1.011,3.898-1.593,6.125-1.593h67.683c2.225,0,4.31,0.582,6.125,1.593h7.049c4.96,0,8.997,4.08,8.997,9.096V117.406z"/>
	<path opacity="0.9" fill="#333333" d="M114.531,5.536H20.503c-8.234,0-14.914,6.718-14.914,15.01v93.837
		c0,8.29,6.676,15.008,14.914,15.008h94.028c8.235,0,14.914-6.719,14.914-15.008V20.545C129.445,12.253,122.771,5.536,114.531,5.536
		z M125.503,116.359c0,6.102-4.923,11.064-10.972,11.064H20.503c-6.049,0-10.972-4.963-10.972-11.064V20.545
		c0-6.102,4.923-11.066,10.972-11.066h94.028c6.049,0,10.972,4.965,10.972,11.066V116.359z"/>
	<path opacity="0.5" fill="#FFFFFF" d="M114.531,128.605H20.503c-8.242,0-14.914-6.717-14.914-15.008v0.785
		c0,8.29,6.672,15.008,14.914,15.008h94.028c8.231,0,14.914-6.719,14.914-15.008v-0.785
		C129.445,121.889,122.763,128.605,114.531,128.605z"/>
</g>
</svg>
