<?xml version="1.0" encoding="utf-8"?>
<!-- Generator: Adobe Illustrator 13.0.0, SVG Export Plug-In . SVG Version: 6.00 Build 14948)  -->
<!DOCTYPE svg PUBLIC "-//W3C//DTD SVG 1.0//EN" "http://www.w3.org/TR/2001/REC-SVG-20010904/DTD/svg10.dtd">
<svg version="1.0" id="Layer_1" xmlns="http://www.w3.org/2000/svg" xmlns:xlink="http://www.w3.org/1999/xlink" x="0px" y="0px"
	 width="270.07px" height="135.032px" viewBox="0 0 270.07 135.032" enable-background="new 0 0 270.07 135.032"
	 xml:space="preserve">
<g>
	<path fill="#1F8AFF" d="M260.517,120.956l-0.004-88.43c0,0,0.061-3.818-1.75-5.785l-13.797-13.55v0.056
		c0.004,0.002,0.008,0.006,0.008,0.01c-2.25-2.104-5.264-3.399-8.586-3.399H33.68c-3.324,0-6.338,1.296-8.586,3.399
		c0.004-0.004,0.004-0.008,0.008-0.01l0.002-0.056l-13.799,13.55c-1.813,1.967-1.75,5.785-1.75,5.785l-0.004,88.455l0.065-0.135
		c1.454,4.396,6.05,6.578,10.89,6.578h229.058c4.848,0,9.557-1.956,11.004-6.361L260.517,120.956z"/>
	<g>
		<linearGradient id="SVGID_1_" gradientUnits="userSpaceOnUse" x1="135.0327" y1="58.7681" x2="135.0327" y2="106.2788">
			<stop  offset="0" style="stop-color:#EEEEEE"/>
			<stop  offset="1" style="stop-color:#B2B2B2"/>
		</linearGradient>
		<path fill="url(#SVGID_1_)" d="M248.986,90.135c0,6.957-5.639,12.596-12.598,12.596H33.68c-6.957,0-12.6-5.639-12.6-12.596V22.454
			c0-6.957,5.643-12.597,12.6-12.597h202.708c6.959,0,12.598,5.64,12.598,12.597V90.135z"/>
		<linearGradient id="SVGID_2_" gradientUnits="userSpaceOnUse" x1="135.0332" y1="107.8442" x2="135.0332" y2="4.3618">
			<stop  offset="0.118" style="stop-color:#EEEEEE"/>
			<stop  offset="1" style="stop-color:#CCCCCC"/>
		</linearGradient>
		<path opacity="0.9" fill="url(#SVGID_2_)" d="M236.388,9.857H33.68c-6.957,0-12.6,5.64-12.6,12.597v67.682
			c0,6.957,5.643,12.596,12.6,12.596h202.708c6.959,0,12.598-5.639,12.598-12.596V22.454
			C248.986,15.497,243.347,9.857,236.388,9.857z M246.751,90.135c0,5.713-4.65,10.361-10.363,10.361H33.68
			c-5.711,0-10.361-4.648-10.361-10.361V22.454c0-2.768,1.08-5.368,3.035-7.327c1.957-1.954,4.556-3.033,7.326-3.033h202.708
			c2.77,0,5.371,1.079,7.328,3.033c1.957,1.959,3.035,4.56,3.035,7.327V90.135z"/>
		<path opacity="0.45" fill="#FFFFFF" d="M233.433,15.074H36.915c-2.515,0-4.876,0.979-6.654,2.757
			c-1.778,1.779-2.759,4.143-2.759,6.658v21.668c11.061,4.699,94.519,7.491,109.076,7.491c15.532,0,94.828-3.167,106.271-8.452
			V24.489c0-2.516-0.98-4.879-2.76-6.658C238.312,16.053,235.951,15.074,233.433,15.074z"/>
		<path opacity="0.8" fill="#FFFFFF" d="M246.578,91.15c-1.258,4.397-5.268,7.436-10.189,7.436H33.68
			c-4.814,0-8.451-3.229-9.953-7.017l-1.744,2.947c1.854,4.363,6.383,8.215,11.697,8.215h202.708c5.732,0,10.557-4.478,12.088-9.25
			L246.578,91.15z"/>
		<linearGradient id="SVGID_3_" gradientUnits="userSpaceOnUse" x1="31.0737" y1="66.8506" x2="12.6655" y2="67.1654">
			<stop  offset="0" style="stop-color:#C7C7C7"/>
			<stop  offset="1" style="stop-color:#858585"/>
		</linearGradient>
		<path fill="url(#SVGID_3_)" d="M21.078,90.135V22.454c0-3.64,1.553-6.908,4.02-9.207l0.003-0.056l-13.798,13.55
			c-1.812,1.967-1.749,5.785-1.749,5.785L9.55,120.981l12.378-26.33C21.388,93.247,21.078,91.729,21.078,90.135z"/>
		
			<linearGradient id="SVGID_4_" gradientUnits="userSpaceOnUse" x1="2431.1538" y1="66.8511" x2="2412.7456" y2="67.1659" gradientTransform="matrix(-1 0 0 1 2670.1475 0)">
			<stop  offset="0" style="stop-color:#C7C7C7"/>
			<stop  offset="1" style="stop-color:#858585"/>
		</linearGradient>
		<path fill="url(#SVGID_4_)" d="M248.986,22.454v67.682c0,1.594-0.307,3.111-0.846,4.516l12.377,26.33l-0.004-88.455
			c0,0,0.061-3.818-1.75-5.785l-13.797-13.55v0.056C247.433,15.545,248.986,18.814,248.986,22.454z"/>
		<linearGradient id="SVGID_5_" gradientUnits="userSpaceOnUse" x1="135.0884" y1="99.7979" x2="135.0884" y2="134.7719">
			<stop  offset="0" style="stop-color:#CFCFCF"/>
			<stop  offset="0.6461" style="stop-color:#696969"/>
			<stop  offset="1" style="stop-color:#000000"/>
		</linearGradient>
		<path fill="url(#SVGID_5_)" d="M20.506,127.424h229.058c4.848,0,9.557-1.956,11.004-6.361L248.14,94.651
			c-1.818,4.723-6.389,8.08-11.752,8.08H33.68c-5.365,0-9.931-3.357-11.749-8.08l-12.321,26.18
			C11.057,125.237,15.659,127.424,20.506,127.424z"/>
	</g>
	<path opacity="0.8" d="M249.564,9.479H20.506c-6.05,0-10.974,4.965-10.974,11.066v15.332h0.022v-3.352c0,0-0.063-3.818,1.75-5.785
		l13.799-13.55l-0.002,0.056c-0.004,0.002-0.004,0.006-0.008,0.01c2.248-2.104,5.262-3.399,8.586-3.399h202.708
		c3.322,0,6.336,1.296,8.586,3.399c0-0.004-0.004-0.008-0.008-0.01v-0.056l13.797,13.55c1.811,1.967,1.75,5.785,1.75,5.785v3.706
		h0.025V25.049l-0.572-8.006C258.507,12.655,254.402,9.479,249.564,9.479z"/>
	<g>
		<path opacity="0.2" fill="#B2B2B2" d="M249.564,0H20.506C15.021,0,9.864,2.146,5.99,6.046C2.128,9.936,0,15.104,0,20.601v93.833
			c0,11.356,9.197,20.598,20.506,20.598h229.058c11.305,0,20.506-9.241,20.506-20.598V20.601C270.07,9.243,260.869,0,249.564,0z
			 M264.48,114.434c0,8.291-6.68,15.01-14.916,15.01H20.506c-8.24,0-14.916-6.719-14.916-15.01V20.601
			c0-8.293,6.676-15.014,14.916-15.014h229.058c8.236,0,14.916,6.721,14.916,15.014V114.434z"/>
		<path opacity="0.4" fill="#333333" d="M249.564,3.352H20.506c-4.585,0-8.896,1.796-12.136,5.057
			c-3.235,3.258-5.019,7.587-5.019,12.192v93.833c0,9.507,7.697,17.244,17.154,17.244h229.058c9.459,0,17.15-7.737,17.15-17.244
			V20.601C266.714,11.089,259.023,3.352,249.564,3.352z M264.48,114.434c0,8.291-6.68,15.01-14.916,15.01H20.506
			c-8.24,0-14.916-6.719-14.916-15.01V20.601c0-8.293,6.676-15.014,14.916-15.014h229.058c8.236,0,14.916,6.721,14.916,15.014
			V114.434z"/>
		<path opacity="0.5" fill="#333333" d="M249.564,4.471H20.506c-4.286,0-8.313,1.677-11.341,4.725
			c-3.028,3.047-4.694,7.097-4.694,11.405v93.833c0,8.892,7.193,16.127,16.035,16.127h229.058c8.842,0,16.035-7.235,16.035-16.127
			V20.601C265.599,11.708,258.406,4.471,249.564,4.471z M264.48,114.434c0,8.291-6.68,15.01-14.916,15.01H20.506
			c-8.24,0-14.916-6.719-14.916-15.01V20.601c0-8.293,6.676-15.014,14.916-15.014h229.058c8.236,0,14.916,6.721,14.916,15.014
			V114.434z"/>
	</g>
	<path opacity="0.2" fill="#4D4D4D" d="M249.564,5.536H20.506c-8.24,0-14.916,6.72-14.916,15.012v93.833
		c0,8.292,6.676,15.011,14.916,15.011h229.058c8.236,0,14.916-6.719,14.916-15.011V20.547C264.48,12.255,257.8,5.536,249.564,5.536z
		 M256.591,118.323c0,3.928-3.152,7.125-7.027,7.125H20.506c-3.878,0-7.031-3.197-7.031-7.125V20.547
		c0-3.929,3.153-7.126,7.031-7.126h4.401c2.271-2.202,5.361-3.564,8.772-3.564h202.708c3.414,0,6.504,1.362,8.771,3.564h4.404
		c3.875,0,7.027,3.197,7.027,7.126V118.323z"/>
	<path opacity="0.4" d="M249.564,5.536H20.506c-8.24,0-14.916,6.718-14.916,15.01v93.837c0,8.29,6.676,15.009,14.916,15.009h229.058
		c8.236,0,14.916-6.719,14.916-15.009V20.545C264.48,12.253,257.8,5.536,249.564,5.536z M258.564,117.407
		c0,5.016-4.039,9.094-9,9.094H20.506c-4.964,0-9.002-4.078-9.002-9.094V20.545c0-5.016,4.038-9.096,9.002-9.096h7.047
		c1.815-1.011,3.899-1.593,6.127-1.593h202.708c2.227,0,4.311,0.582,6.125,1.593h7.051c4.961,0,9,4.08,9,9.096V117.407z"/>
	<path opacity="0.9" fill="#333333" d="M249.564,5.536H20.506c-8.236,0-14.916,6.718-14.916,15.01v93.837
		c0,8.29,6.676,15.009,14.916,15.009h229.058c8.236,0,14.916-6.719,14.916-15.009V20.545C264.48,12.253,257.804,5.536,249.564,5.536
		z M260.539,116.359c0,6.103-4.924,11.065-10.975,11.065H20.506c-6.05,0-10.974-4.963-10.974-11.065V20.545
		c0-6.102,4.924-11.066,10.974-11.066h229.058c6.051,0,10.975,4.965,10.975,11.066V116.359z"/>
	<path opacity="0.5" fill="#FFFFFF" d="M249.564,128.606H20.506c-8.244,0-14.916-6.718-14.916-15.009v0.785
		c0,8.29,6.672,15.009,14.916,15.009h229.058c8.232,0,14.916-6.719,14.916-15.009v-0.785
		C264.48,121.888,257.796,128.606,249.564,128.606z"/>
</g>
</svg>
