<?xml version="1.0" encoding="utf-8"?>
<!-- Generator: Adobe Illustrator 13.0.0, SVG Export Plug-In . SVG Version: 6.00 Build 14948)  -->
<!DOCTYPE svg PUBLIC "-//W3C//DTD SVG 1.0//EN" "http://www.w3.org/TR/2001/REC-SVG-20010904/DTD/svg10.dtd">
<svg version="1.0" id="Layer_1" xmlns="http://www.w3.org/2000/svg" xmlns:xlink="http://www.w3.org/1999/xlink" x="0px" y="0px"
	 width="270.07px" height="135.031px" viewBox="0 0 270.07 135.031" enable-background="new 0 0 270.07 135.031"
	 xml:space="preserve">
<g>
	<path fill="#1F8AFF" d="M260.511,22.67c0,0,0.063-3.816-1.744-5.785L244.966,3.336l0.004,0.053
		c0.004,0.004,0.004,0.008,0.006,0.012c-2.252-2.104-5.264-3.4-8.59-3.4H33.683c-3.323,0-6.337,1.297-8.584,3.4
		c0-0.004,0.003-0.008,0.007-0.012V3.336L11.309,16.885c-1.809,1.969-1.75,5.785-1.75,5.785l-0.003,88.453l0.003-0.002v3.682
		c0.219,5.906,5.035,10.645,10.95,10.645H249.56c5.914,0,10.732-4.738,10.955-10.645v-3.682v0.002L260.511,22.67z"/>
	<g>
		<linearGradient id="SVGID_1_" gradientUnits="userSpaceOnUse" x1="135.0361" y1="48.9106" x2="135.0361" y2="96.4208">
			<stop  offset="0" style="stop-color:#EEEEEE"/>
			<stop  offset="1" style="stop-color:#B2B2B2"/>
		</linearGradient>
		<path fill="url(#SVGID_1_)" d="M248.988,80.279c0,6.957-5.641,12.594-12.602,12.594H33.683c-6.956,0-12.598-5.637-12.598-12.594
			V12.6c0-6.961,5.642-12.6,12.598-12.6h202.704c6.961,0,12.602,5.639,12.602,12.6V80.279z"/>
		<linearGradient id="SVGID_2_" gradientUnits="userSpaceOnUse" x1="135.0366" y1="97.9863" x2="135.0366" y2="-5.4951">
			<stop  offset="0.118" style="stop-color:#EEEEEE"/>
			<stop  offset="1" style="stop-color:#CCCCCC"/>
		</linearGradient>
		<path opacity="0.9" fill="url(#SVGID_2_)" d="M236.386,0H33.683c-6.956,0-12.598,5.639-12.598,12.6v67.68
			c0,6.957,5.642,12.594,12.598,12.594h202.704c6.961,0,12.602-5.637,12.602-12.594V12.6C248.988,5.639,243.347,0,236.386,0z
			 M246.751,80.279c0,5.713-4.65,10.359-10.365,10.359H33.683c-5.714,0-10.361-4.646-10.361-10.359V12.6
			c0-2.768,1.081-5.371,3.034-7.328c1.955-1.957,4.557-3.033,7.327-3.033h202.704c2.77,0,5.373,1.076,7.33,3.033
			s3.035,4.561,3.035,7.328V80.279z"/>
		<path opacity="0.45" fill="#FFFFFF" d="M233.433,5.219H36.915c-2.515,0-4.876,0.98-6.65,2.756
			c-1.782,1.779-2.759,4.143-2.759,6.658v21.666c11.06,4.703,94.519,7.492,109.073,7.492c15.531,0,94.827-3.166,106.27-8.449V14.633
			c0-2.516-0.977-4.879-2.76-6.658C238.314,6.199,235.949,5.219,233.433,5.219z"/>
		<path opacity="0.8" fill="#FFFFFF" d="M246.576,81.293c-1.256,4.398-5.266,7.434-10.189,7.434H33.683
			c-4.813,0-8.45-3.227-9.957-7.014l-1.74,2.945c1.85,4.365,6.384,8.215,11.697,8.215h202.704c5.734,0,10.563-4.477,12.086-9.25
			L246.576,81.293z"/>
		<linearGradient id="SVGID_3_" gradientUnits="userSpaceOnUse" x1="31.0742" y1="56.9946" x2="12.6681" y2="57.3094">
			<stop  offset="0" style="stop-color:#C7C7C7"/>
			<stop  offset="1" style="stop-color:#858585"/>
		</linearGradient>
		<path fill="url(#SVGID_3_)" d="M21.082,80.279V12.6c0-3.643,1.553-6.908,4.02-9.211V3.336L11.307,16.885
			c-1.809,1.969-1.75,5.785-1.75,5.785l-0.004,88.453l12.38-26.33C21.39,83.391,21.082,81.873,21.082,80.279z"/>
		
			<linearGradient id="SVGID_4_" gradientUnits="userSpaceOnUse" x1="2429.396" y1="56.9941" x2="2410.9897" y2="57.3089" gradientTransform="matrix(-1 0 0 1 2668.3896 0)">
			<stop  offset="0" style="stop-color:#C7C7C7"/>
			<stop  offset="1" style="stop-color:#858585"/>
		</linearGradient>
		<path fill="url(#SVGID_4_)" d="M248.988,12.6v67.68c0,1.594-0.307,3.111-0.848,4.514l12.375,26.33l-0.004-88.453
			c0,0,0.063-3.816-1.744-5.785L244.966,3.336l0.004,0.053C247.437,5.691,248.988,8.957,248.988,12.6z"/>
		<linearGradient id="SVGID_5_" gradientUnits="userSpaceOnUse" x1="135.0366" y1="91.1777" x2="135.0366" y2="134.5612">
			<stop  offset="0" style="stop-color:#CFCFCF"/>
			<stop  offset="0.7079" style="stop-color:#828282"/>
			<stop  offset="1" style="stop-color:#000000"/>
		</linearGradient>
		<path fill="url(#SVGID_5_)" d="M248.14,84.793c-1.822,4.725-6.385,8.08-11.754,8.08H33.683c-5.364,0-9.934-3.355-11.748-8.08
			L9.559,111.119v3.684c0.219,5.906,5.035,10.645,10.95,10.645H249.56c5.914,0,10.732-4.738,10.955-10.645v-3.684L248.14,84.793z"/>
	</g>
	<g>
		<g>
			<path opacity="0.2" fill="#4D4D4D" d="M249.56,5.537h-2.283l5.461,5.361c0.645,0.523,1.246,1.119,1.777,1.65
				c0.27,0.275,0.514,0.623,0.736,0.994c0.455,0.709,0.754,1.523,0.941,2.309c0.26,0.949,0.402,1.914,0.402,2.727v95.801
				c0,3.928-3.158,7.125-7.035,7.125H20.509c-3.878,0-7.028-3.197-7.028-7.125V18.578c0-1.912,0.734-4.68,2.076-6.029
				c0.561-0.566,1.203-1.199,1.902-1.746l5.356-5.266h-2.307c-8.243,0-14.918,6.721-14.918,15.014v93.828
				c0,8.291,6.675,15.012,14.918,15.012H249.56c8.24,0,14.92-6.721,14.92-15.012V20.551C264.48,12.258,257.8,5.537,249.56,5.537z"/>
			<path opacity="0.4" d="M249.56,5.539h-2.445l8.082,7.918l-0.061,0.004c0.262,0.211,0.535,0.402,0.775,0.645
				c1.711,1.719,2.65,4.006,2.65,6.445v93.83c0,5.016-4.039,9.094-9.002,9.094H20.509c-4.964,0-9.005-4.078-9.005-9.094v-93.83
				c0-2.393,0.916-4.633,2.566-6.34l-0.041-0.01l8.812-8.662h-2.332c-8.243,0-14.918,6.719-14.918,15.012v93.83
				c0,8.291,6.675,15.01,14.918,15.01H249.56c8.24,0,14.92-6.719,14.92-15.01v-93.83C264.48,12.258,257.8,5.539,249.56,5.539z"/>
			<path opacity="0.9" fill="#333333" d="M249.56,5.539h-2.434l4.121,4.109c2.285,0.352,4.398,1.389,6.061,3.064
				c2.086,2.092,3.225,4.877,3.225,7.838v93.83c0,6.102-4.92,11.066-10.973,11.066H20.509c-6.05,0-10.972-4.965-10.972-11.066
				v-93.83c0-2.963,1.141-5.746,3.221-7.838c1.629-1.639,3.684-2.674,5.91-3.051l4.188-4.123h-2.348
				c-8.243,0-14.918,6.719-14.918,15.012v93.83c0,8.291,6.675,15.01,14.918,15.01H249.56c8.24,0,14.92-6.719,14.92-15.01v-93.83
				C264.48,12.258,257.8,5.539,249.56,5.539z"/>
			<path opacity="0.5" fill="#FFFFFF" d="M249.904,128.57H20.849c-8.243,0-14.916-6.717-14.916-15.008v0.785
				c0,8.289,6.673,15.008,14.916,15.008h229.055c8.236,0,14.914-6.719,14.914-15.008v-0.785
				C264.818,121.854,258.14,128.57,249.904,128.57z"/>
		</g>
		<g>
			<path opacity="0.9" fill="#333333" d="M9.557,22.67c0,0-0.059-3.816,1.75-5.785l3.723-3.66c0.168-0.246,0.346-0.48,0.543-0.676
				c0.563-0.566,1.211-1.199,1.902-1.748l1.141-1.123c-2.197,0.387-4.226,1.41-5.842,3.035c-2.076,2.092-3.221,4.875-3.221,7.838
				L9.557,22.67z"/>
			<path opacity="0.9" fill="#333333" d="M254.531,12.549c0.191,0.186,0.338,0.432,0.498,0.67l3.738,3.666
				c1.807,1.969,1.744,5.785,1.744,5.785l0.045-2.119c0-2.961-1.145-5.746-3.225-7.838c-1.598-1.607-3.613-2.607-5.785-3
				l1.209,1.186C253.402,11.422,254.001,12.016,254.531,12.549z"/>
		</g>
	</g>
	<path opacity="0.5" fill="#333333" d="M249.56,4.471h-3.438l1.139,1.119h2.299c8.24,0,14.92,6.721,14.92,15.012v93.832
		c0,8.291-6.68,15.008-14.92,15.008H20.509c-8.243,0-14.918-6.717-14.918-15.008V20.602c0-8.291,6.675-15.012,14.918-15.012h2.301
		l1.139-1.119h-3.439c-4.285,0-8.315,1.68-11.344,4.727c-3.025,3.049-4.694,7.098-4.694,11.404v93.832
		c0,8.893,7.197,16.127,16.038,16.127H249.56c8.842,0,16.039-7.234,16.039-16.127V20.602C265.599,11.709,258.402,4.471,249.56,4.471
		z"/>
	<path opacity="0.2" fill="#B2B2B2" d="M249.56,0h-13.174c3.326,0,6.338,1.297,8.59,3.4c-0.002-0.004-0.002-0.008-0.006-0.012
		l-0.004-0.053l2.295,2.254h2.299c8.24,0,14.92,6.721,14.92,15.012v93.832c0,8.291-6.68,15.008-14.92,15.008H20.509
		c-8.243,0-14.918-6.717-14.918-15.008V20.602c0-8.291,6.675-15.012,14.918-15.012h2.301l2.296-2.254v0.053
		c-0.004,0.004-0.007,0.008-0.007,0.012C27.346,1.297,30.359,0,33.683,0H20.509C15.021,0,9.869,2.146,5.995,6.049
		C2.127,9.938,0,15.105,0,20.602v93.832c0,11.357,9.2,20.598,20.509,20.598H249.56c11.309,0,20.51-9.24,20.51-20.598V20.602
		C270.07,9.242,260.869,0,249.56,0z"/>
	<g>
		<path opacity="0.4" fill="#333333" d="M244.976,3.4c-0.002-0.004-0.002-0.008-0.006-0.012l-0.002-0.033h-0.045
			C244.941,3.371,244.958,3.385,244.976,3.4z"/>
		<path opacity="0.4" fill="#333333" d="M25.102,3.355v0.033c-0.003,0.004-0.008,0.008-0.008,0.012
			c0.018-0.016,0.035-0.029,0.053-0.045H25.102z"/>
		<path opacity="0.4" fill="#333333" d="M249.56,3.355h-4.574l2.275,2.234h2.299c8.24,0,14.92,6.721,14.92,15.012v93.832
			c0,8.291-6.68,15.008-14.92,15.008H20.509c-8.243,0-14.918-6.717-14.918-15.008V20.602c0-8.291,6.675-15.012,14.918-15.012h2.301
			l2.276-2.234h-4.577c-4.589,0-8.896,1.793-12.135,5.055c-3.241,3.258-5.019,7.586-5.019,12.191v93.832
			c0,9.51,7.697,17.244,17.153,17.244H249.56c9.457,0,17.152-7.734,17.152-17.244V20.602C266.712,11.092,259.017,3.355,249.56,3.355
			z"/>
	</g>
</g>
</svg>
