<?xml version="1.0" encoding="utf-8"?>
<!-- Generator: Adobe Illustrator 13.0.0, SVG Export Plug-In . SVG Version: 6.00 Build 14948)  -->
<!DOCTYPE svg PUBLIC "-//W3C//DTD SVG 1.0//EN" "http://www.w3.org/TR/2001/REC-SVG-20010904/DTD/svg10.dtd">
<svg version="1.0" id="Layer_1" xmlns="http://www.w3.org/2000/svg" xmlns:xlink="http://www.w3.org/1999/xlink" x="0px" y="0px"
	 width="540.142px" height="135.031px" viewBox="0 0 540.142 135.031" enable-background="new 0 0 540.142 135.031"
	 xml:space="preserve">
<g>
	<path fill="#1F8AFF" d="M530.587,120.955l-0.004-88.43c0,0,0.062-3.818-1.749-5.785l-13.798-13.549v0.055
		c0.003,0.002,0.007,0.006,0.007,0.01c-2.248-2.104-5.263-3.398-8.586-3.398H33.682c-3.324,0-6.338,1.295-8.587,3.398
		c0.004-0.004,0.004-0.008,0.008-0.01l0.003-0.055L11.305,26.74c-1.812,1.967-1.749,5.785-1.749,5.785L9.552,120.98l0.065-0.135
		c1.454,4.396,6.05,6.578,10.89,6.578h499.128c4.848,0,9.556-1.956,11.003-6.361L530.587,120.955z"/>
	<g>
		<linearGradient id="SVGID_1_" gradientUnits="userSpaceOnUse" x1="270.0693" y1="58.7676" x2="270.0693" y2="106.2775">
			<stop  offset="0" style="stop-color:#EEEEEE"/>
			<stop  offset="1" style="stop-color:#B2B2B2"/>
		</linearGradient>
		<path fill="url(#SVGID_1_)" d="M519.056,90.135c0,6.957-5.638,12.596-12.599,12.596H33.682c-6.957,0-12.6-5.639-12.6-12.596
			V22.453c0-6.957,5.643-12.596,12.6-12.596h472.775c6.961,0,12.599,5.639,12.599,12.596V90.135z"/>
		<linearGradient id="SVGID_2_" gradientUnits="userSpaceOnUse" x1="270.0684" y1="107.8438" x2="270.0684" y2="4.3618">
			<stop  offset="0.118" style="stop-color:#EEEEEE"/>
			<stop  offset="1" style="stop-color:#CCCCCC"/>
		</linearGradient>
		<path opacity="0.9" fill="url(#SVGID_2_)" d="M506.457,9.857H33.682c-6.957,0-12.6,5.639-12.6,12.596v67.682
			c0,6.957,5.643,12.596,12.6,12.596h472.775c6.961,0,12.599-5.639,12.599-12.596V22.453
			C519.056,15.496,513.418,9.857,506.457,9.857z M516.822,90.135c0,5.713-4.65,10.361-10.365,10.361H33.682
			c-5.711,0-10.361-4.648-10.361-10.361V22.453c0-2.768,1.079-5.369,3.035-7.327c1.959-1.954,4.557-3.033,7.326-3.033h472.775
			c2.77,0,5.371,1.079,7.329,3.033c1.957,1.958,3.036,4.56,3.036,7.327V90.135z"/>
		<path opacity="0.45" fill="#FFFFFF" d="M503.502,15.073H36.918c-2.515,0-4.877,0.979-6.655,2.757
			c-1.778,1.779-2.759,4.143-2.759,6.658v21.668c11.063,4.699,230.52,7.49,245.078,7.49c15.533,0,228.893-3.166,240.336-8.451
			V24.488c0-2.516-0.98-4.879-2.759-6.658C508.381,16.053,506.02,15.073,503.502,15.073z"/>
		<path opacity="0.8" fill="#FFFFFF" d="M516.646,91.15c-1.257,4.396-5.266,7.434-10.189,7.434H33.682
			c-4.814,0-8.451-3.229-9.953-7.016l-1.746,2.947c1.855,4.363,6.386,8.215,11.699,8.215h472.775c5.732,0,10.559-4.478,12.088-9.25
			L516.646,91.15z"/>
		<linearGradient id="SVGID_3_" gradientUnits="userSpaceOnUse" x1="31.0737" y1="66.8506" x2="12.6655" y2="67.1654">
			<stop  offset="0" style="stop-color:#C7C7C7"/>
			<stop  offset="1" style="stop-color:#858585"/>
		</linearGradient>
		<path fill="url(#SVGID_3_)" d="M21.078,90.135V22.453c0-3.64,1.553-6.908,4.02-9.207l0.003-0.055L11.303,26.74
			c-1.812,1.967-1.749,5.785-1.749,5.785L9.55,120.98l12.378-26.33C21.388,93.246,21.078,91.729,21.078,90.135z"/>
		
			<linearGradient id="SVGID_4_" gradientUnits="userSpaceOnUse" x1="2143.1709" y1="66.8506" x2="2124.7627" y2="67.1654" gradientTransform="matrix(-1 0 0 1 2652.2344 0)">
			<stop  offset="0" style="stop-color:#C7C7C7"/>
			<stop  offset="1" style="stop-color:#858585"/>
		</linearGradient>
		<path fill="url(#SVGID_4_)" d="M519.056,22.453v67.682c0,1.594-0.306,3.111-0.847,4.516l12.378,26.33l-0.004-88.455
			c0,0,0.062-3.818-1.749-5.785l-13.798-13.549v0.055C517.504,15.545,519.056,18.813,519.056,22.453z"/>
		<linearGradient id="SVGID_5_" gradientUnits="userSpaceOnUse" x1="270.124" y1="99.7979" x2="270.124" y2="134.7714">
			<stop  offset="0" style="stop-color:#CFCFCF"/>
			<stop  offset="0.6461" style="stop-color:#696969"/>
			<stop  offset="1" style="stop-color:#000000"/>
		</linearGradient>
		<path fill="url(#SVGID_5_)" d="M20.507,127.424h499.128c4.848,0,9.556-1.956,11.003-6.361L518.209,94.65
			c-1.816,4.723-6.387,8.08-11.752,8.08H33.682c-5.364,0-9.931-3.357-11.75-8.08L9.61,120.83
			C11.057,125.236,15.66,127.424,20.507,127.424z"/>
	</g>
	<path opacity="0.8" d="M519.635,9.479H20.507c-6.05,0-10.974,4.965-10.974,11.066v15.332h0.022v-3.352c0,0-0.063-3.818,1.749-5.785
		l13.801-13.549l-0.003,0.055c-0.004,0.002-0.004,0.006-0.008,0.01c2.249-2.104,5.263-3.398,8.587-3.398h472.775
		c3.323,0,6.338,1.295,8.586,3.398c0-0.004-0.004-0.008-0.007-0.01v-0.055l13.798,13.549c1.811,1.967,1.749,5.785,1.749,5.785v3.707
		h0.025V25.049l-0.572-8.006C528.579,12.654,524.472,9.479,519.635,9.479z"/>
	<g>
		<path opacity="0.2" fill="#B2B2B2" d="M519.635,0H20.507C15.021,0,9.865,2.146,5.991,6.046C2.129,9.936,0,15.104,0,20.601v93.833
			c0,11.356,9.198,20.598,20.507,20.598h499.128c11.305,0,20.507-9.241,20.507-20.598V20.601C540.142,9.242,530.939,0,519.635,0z
			 M534.552,114.434c0,8.291-6.681,15.01-14.917,15.01H20.507c-8.239,0-14.917-6.719-14.917-15.01V20.601
			c0-8.293,6.678-15.014,14.917-15.014h499.128c8.236,0,14.917,6.721,14.917,15.014V114.434z"/>
		<path opacity="0.4" fill="#333333" d="M519.635,3.352H20.507c-4.585,0-8.896,1.797-12.136,5.057
			c-3.236,3.258-5.02,7.587-5.02,12.192v93.833c0,9.508,7.698,17.244,17.155,17.244h499.128c9.458,0,17.15-7.736,17.15-17.244
			V20.601C536.785,11.089,529.093,3.352,519.635,3.352z M534.552,114.434c0,8.291-6.681,15.01-14.917,15.01H20.507
			c-8.239,0-14.917-6.719-14.917-15.01V20.601c0-8.293,6.678-15.014,14.917-15.014h499.128c8.236,0,14.917,6.721,14.917,15.014
			V114.434z"/>
		<path opacity="0.5" fill="#333333" d="M519.635,4.471H20.507c-4.286,0-8.313,1.678-11.341,4.725
			c-3.029,3.047-4.694,7.097-4.694,11.405v93.833c0,8.892,7.194,16.127,16.035,16.127h499.128c8.842,0,16.035-7.235,16.035-16.127
			V20.601C535.67,11.707,528.477,4.471,519.635,4.471z M534.552,114.434c0,8.291-6.681,15.01-14.917,15.01H20.507
			c-8.239,0-14.917-6.719-14.917-15.01V20.601c0-8.293,6.678-15.014,14.917-15.014h499.128c8.236,0,14.917,6.721,14.917,15.014
			V114.434z"/>
	</g>
	<path opacity="0.2" fill="#4D4D4D" d="M519.635,5.535H20.507c-8.239,0-14.917,6.72-14.917,15.012v93.833
		c0,8.292,6.678,15.011,14.917,15.011h499.128c8.236,0,14.917-6.719,14.917-15.011V20.547
		C534.552,12.255,527.871,5.535,519.635,5.535z M526.662,118.322c0,3.928-3.152,7.125-7.027,7.125H20.507
		c-3.878,0-7.03-3.197-7.03-7.125V20.547c0-3.929,3.152-7.126,7.03-7.126h4.402c2.271-2.202,5.361-3.563,8.772-3.563h472.775
		c3.415,0,6.506,1.361,8.771,3.563h4.406c3.875,0,7.027,3.197,7.027,7.126V118.322z"/>
	<path opacity="0.4" d="M519.635,5.535H20.507c-8.239,0-14.917,6.718-14.917,15.01v93.837c0,8.29,6.678,15.009,14.917,15.009
		h499.128c8.236,0,14.917-6.719,14.917-15.009V20.545C534.552,12.253,527.871,5.535,519.635,5.535z M528.634,117.406
		c0,5.016-4.038,9.094-8.999,9.094H20.507c-4.964,0-9.001-4.078-9.001-9.094V20.545c0-5.016,4.037-9.096,9.001-9.096h7.048
		c1.815-1.011,3.9-1.592,6.127-1.592h472.775c2.227,0,4.312,0.581,6.127,1.592h7.051c4.961,0,8.999,4.08,8.999,9.096V117.406z"/>
	<path opacity="0.9" fill="#333333" d="M519.635,5.535H20.507c-8.235,0-14.917,6.718-14.917,15.01v93.837
		c0,8.29,6.678,15.009,14.917,15.009h499.128c8.236,0,14.917-6.719,14.917-15.009V20.545
		C534.552,12.253,527.875,5.535,519.635,5.535z M530.608,116.358c0,6.103-4.924,11.065-10.974,11.065H20.507
		c-6.05,0-10.974-4.963-10.974-11.065V20.545c0-6.102,4.924-11.066,10.974-11.066h499.128c6.05,0,10.974,4.965,10.974,11.066
		V116.358z"/>
	<path opacity="0.5" fill="#FFFFFF" d="M519.635,128.605H20.507c-8.243,0-14.917-6.718-14.917-15.009v0.785
		c0,8.29,6.674,15.009,14.917,15.009h499.128c8.232,0,14.917-6.719,14.917-15.009v-0.785
		C534.552,121.888,527.867,128.605,519.635,128.605z"/>
</g>
</svg>
