<?xml version="1.0" encoding="utf-8"?>
<!-- Generator: Adobe Illustrator 13.0.0, SVG Export Plug-In . SVG Version: 6.00 Build 14948)  -->
<!DOCTYPE svg PUBLIC "-//W3C//DTD SVG 1.0//EN" "http://www.w3.org/TR/2001/REC-SVG-20010904/DTD/svg10.dtd">
<svg version="1.0" id="Layer_1" xmlns="http://www.w3.org/2000/svg" xmlns:xlink="http://www.w3.org/1999/xlink" x="0px" y="0px"
	 width="540.142px" height="135.031px" viewBox="0 0 540.142 135.031" enable-background="new 0 0 540.142 135.031"
	 xml:space="preserve">
<g>
	<path fill="#1F8AFF" d="M530.581,22.668c0,0,0.063-3.816-1.744-5.783L515.035,3.336l0.004,0.053
		c0.005,0.004,0.005,0.008,0.006,0.01C512.792,1.295,509.782,0,506.455,0H33.685c-3.323,0-6.338,1.295-8.586,3.398
		c0-0.002,0.004-0.006,0.008-0.01V3.336L11.309,16.885c-1.809,1.967-1.75,5.783-1.75,5.783l-0.004,88.455l0.004-0.004v3.682
		c0.219,5.906,5.036,10.645,10.951,10.645h499.12c5.915,0,10.732-4.738,10.955-10.645v-3.682v0.004L530.581,22.668z"/>
	<g>
		<linearGradient id="SVGID_1_" gradientUnits="userSpaceOnUse" x1="270.0723" y1="48.9092" x2="270.0723" y2="96.4181">
			<stop  offset="0" style="stop-color:#EEEEEE"/>
			<stop  offset="1" style="stop-color:#B2B2B2"/>
		</linearGradient>
		<path fill="url(#SVGID_1_)" d="M519.058,80.277c0,6.957-5.642,12.594-12.603,12.594H33.685c-6.957,0-12.599-5.637-12.599-12.594
			v-67.68C21.086,5.639,26.728,0,33.685,0h472.771c6.961,0,12.603,5.639,12.603,12.598V80.277z"/>
		<linearGradient id="SVGID_2_" gradientUnits="userSpaceOnUse" x1="270.0713" y1="97.9844" x2="270.0713" y2="-5.4954">
			<stop  offset="0.118" style="stop-color:#EEEEEE"/>
			<stop  offset="1" style="stop-color:#CCCCCC"/>
		</linearGradient>
		<path opacity="0.9" fill="url(#SVGID_2_)" d="M506.455,0H33.685c-6.957,0-12.599,5.639-12.599,12.598v67.68
			c0,6.957,5.642,12.594,12.599,12.594h472.771c6.961,0,12.603-5.637,12.603-12.594v-67.68C519.058,5.639,513.416,0,506.455,0z
			 M516.82,80.277c0,5.713-4.651,10.361-10.365,10.361H33.685c-5.715,0-10.361-4.648-10.361-10.361v-67.68
			c0-2.768,1.08-5.371,3.033-7.328c1.955-1.955,4.558-3.033,7.328-3.033h472.771c2.771,0,5.372,1.078,7.33,3.033
			c1.957,1.957,3.035,4.561,3.035,7.328V80.277z"/>
		<path opacity="0.45" fill="#FFFFFF" d="M503.501,5.217H36.917c-2.514,0-4.875,0.98-6.651,2.758
			c-1.781,1.777-2.759,4.143-2.759,6.656v21.668c11.062,4.701,224.521,7.49,239.076,7.49c15.533,0,234.891-3.166,246.334-8.449
			V14.631c0-2.514-0.977-4.879-2.758-6.656C508.384,6.197,506.018,5.217,503.501,5.217z"/>
		<path opacity="0.8" fill="#FFFFFF" d="M516.645,81.291c-1.256,4.398-5.265,7.434-10.189,7.434H33.685
			c-4.813,0-8.451-3.227-9.957-7.014l-1.741,2.945c1.851,4.365,6.385,8.215,11.698,8.215h472.771c5.733,0,10.563-4.477,12.085-9.248
			L516.645,81.291z"/>
		<linearGradient id="SVGID_3_" gradientUnits="userSpaceOnUse" x1="31.0742" y1="56.9941" x2="12.6681" y2="57.3089">
			<stop  offset="0" style="stop-color:#C7C7C7"/>
			<stop  offset="1" style="stop-color:#858585"/>
		</linearGradient>
		<path fill="url(#SVGID_3_)" d="M21.082,80.277v-67.68c0-3.643,1.553-6.908,4.02-9.209V3.336L11.307,16.885
			c-1.809,1.967-1.75,5.783-1.75,5.783l-0.004,88.455l12.379-26.332C21.389,83.389,21.082,81.871,21.082,80.277z"/>
		
			<linearGradient id="SVGID_4_" gradientUnits="userSpaceOnUse" x1="2142.4629" y1="56.9941" x2="2124.0557" y2="57.3089" gradientTransform="matrix(-1 0 0 1 2651.5254 0)">
			<stop  offset="0" style="stop-color:#C7C7C7"/>
			<stop  offset="1" style="stop-color:#858585"/>
		</linearGradient>
		<path fill="url(#SVGID_4_)" d="M519.058,12.598v67.68c0,1.594-0.309,3.111-0.848,4.514l12.375,26.332l-0.004-88.455
			c0,0,0.063-3.816-1.744-5.783L515.035,3.336l0.004,0.053C517.507,5.689,519.058,8.955,519.058,12.598z"/>
		<linearGradient id="SVGID_5_" gradientUnits="userSpaceOnUse" x1="270.0723" y1="91.1758" x2="270.0723" y2="134.5592">
			<stop  offset="0" style="stop-color:#CFCFCF"/>
			<stop  offset="0.7079" style="stop-color:#828282"/>
			<stop  offset="1" style="stop-color:#000000"/>
		</linearGradient>
		<path fill="url(#SVGID_5_)" d="M518.21,84.791c-1.823,4.725-6.387,8.08-11.755,8.08H33.685c-5.364,0-9.934-3.355-11.749-8.08
			L9.559,111.117v3.684c0.219,5.906,5.036,10.645,10.951,10.645h499.12c5.915,0,10.732-4.738,10.955-10.645v-3.684L518.21,84.791z"
			/>
	</g>
	<g>
		<g>
			<path opacity="0.2" fill="#4D4D4D" d="M519.63,5.537h-2.283l5.461,5.361c0.646,0.521,1.247,1.117,1.777,1.65
				c0.271,0.275,0.515,0.621,0.737,0.992c0.455,0.709,0.754,1.523,0.941,2.309c0.258,0.949,0.4,1.914,0.4,2.727v95.803
				c0,3.928-3.156,7.125-7.034,7.125H20.51c-3.878,0-7.028-3.197-7.028-7.125V18.576c0-1.912,0.734-4.68,2.076-6.027
				c0.561-0.566,1.203-1.201,1.902-1.748l5.357-5.264H20.51c-8.243,0-14.919,6.721-14.919,15.014v93.828
				c0,8.291,6.676,15.01,14.919,15.01h499.12c8.24,0,14.921-6.719,14.921-15.01V20.551C534.551,12.258,527.87,5.537,519.63,5.537z"
				/>
			<path opacity="0.4" d="M519.63,5.537h-2.445l8.083,7.918l-0.061,0.004c0.262,0.211,0.535,0.402,0.775,0.645
				c1.71,1.719,2.649,4.008,2.649,6.447v93.83c0,5.016-4.038,9.092-9.002,9.092H20.51c-4.964,0-9.006-4.076-9.006-9.092v-93.83
				c0-2.393,0.917-4.633,2.567-6.342l-0.041-0.01l8.813-8.662H20.51c-8.243,0-14.919,6.721-14.919,15.014v93.83
				c0,8.291,6.676,15.008,14.919,15.008h499.12c8.24,0,14.921-6.717,14.921-15.008v-93.83C534.551,12.258,527.87,5.537,519.63,5.537
				z"/>
			<path opacity="0.9" fill="#333333" d="M519.63,5.537h-2.434l4.121,4.109c2.286,0.354,4.399,1.391,6.061,3.066
				c2.086,2.092,3.225,4.875,3.225,7.838v93.83c0,6.102-4.919,11.064-10.973,11.064H20.51c-6.05,0-10.973-4.963-10.973-11.064
				v-93.83c0-2.965,1.141-5.746,3.222-7.838c1.629-1.641,3.684-2.676,5.911-3.053l4.188-4.123H20.51
				c-8.243,0-14.919,6.721-14.919,15.014v93.83c0,8.291,6.676,15.008,14.919,15.008h499.12c8.24,0,14.921-6.717,14.921-15.008
				v-93.83C534.551,12.258,527.87,5.537,519.63,5.537z"/>
			<path opacity="0.5" fill="#FFFFFF" d="M519.974,128.568H20.85c-8.243,0-14.917-6.717-14.917-15.006v0.783
				c0,8.289,6.674,15.008,14.917,15.008h499.124c8.236,0,14.915-6.719,14.915-15.008v-0.783
				C534.889,121.852,528.21,128.568,519.974,128.568z"/>
		</g>
		<g>
			<path opacity="0.9" fill="#333333" d="M9.557,22.668c0,0-0.059-3.816,1.75-5.783l3.723-3.66c0.168-0.248,0.346-0.48,0.543-0.676
				c0.563-0.566,1.211-1.201,1.902-1.75l1.141-1.121c-2.196,0.385-4.227,1.41-5.842,3.035c-2.076,2.092-3.221,4.873-3.221,7.838
				L9.557,22.668z"/>
			<path opacity="0.9" fill="#333333" d="M524.602,12.549c0.19,0.184,0.338,0.432,0.498,0.668l3.737,3.668
				c1.807,1.967,1.744,5.783,1.744,5.783l0.045-2.117c0-2.963-1.145-5.746-3.225-7.838c-1.597-1.609-3.612-2.609-5.785-3.002
				l1.209,1.188C523.473,11.42,524.072,12.014,524.602,12.549z"/>
		</g>
	</g>
	<path opacity="0.5" fill="#333333" d="M519.63,4.471h-3.438l1.14,1.119h2.299c8.24,0,14.921,6.721,14.921,15.012v93.832
		c0,8.291-6.681,15.006-14.921,15.006H20.51c-8.243,0-14.919-6.715-14.919-15.006V20.602c0-8.291,6.676-15.012,14.919-15.012h2.302
		l1.139-1.119h-3.44c-4.286,0-8.316,1.68-11.344,4.725c-3.026,3.049-4.694,7.1-4.694,11.406v93.832
		c0,8.893,7.197,16.127,16.038,16.127h499.12c8.842,0,16.04-7.234,16.04-16.127V20.602C535.67,11.709,528.472,4.471,519.63,4.471z"
		/>
	<path opacity="0.2" fill="#B2B2B2" d="M519.63,0h-13.175c3.327,0,6.337,1.295,8.59,3.398c-0.001-0.002-0.001-0.006-0.006-0.01
		l-0.004-0.053l2.296,2.254h2.299c8.24,0,14.921,6.721,14.921,15.012v93.832c0,8.291-6.681,15.006-14.921,15.006H20.51
		c-8.243,0-14.919-6.715-14.919-15.006V20.602c0-8.291,6.676-15.012,14.919-15.012h2.302l2.295-2.254v0.053
		c-0.004,0.004-0.008,0.008-0.008,0.01C27.347,1.295,30.361,0,33.685,0H20.51C15.022,0,9.869,2.146,5.995,6.049
		C2.128,9.936,0,15.104,0,20.602v93.832c0,11.357,9.201,20.598,20.51,20.598h499.12c11.309,0,20.512-9.24,20.512-20.598V20.602
		C540.142,9.242,530.938,0,519.63,0z"/>
	<g>
		<path opacity="0.4" fill="#333333" d="M515.045,3.398c-0.001-0.002-0.001-0.006-0.006-0.01l-0.002-0.035h-0.045
			C515.01,3.369,515.027,3.383,515.045,3.398z"/>
		<path opacity="0.4" fill="#333333" d="M25.102,3.354v0.035c-0.004,0.004-0.008,0.008-0.008,0.01
			c0.018-0.016,0.035-0.029,0.053-0.045H25.102z"/>
		<path opacity="0.4" fill="#333333" d="M519.63,3.354h-4.575l2.276,2.236h2.299c8.24,0,14.921,6.721,14.921,15.012v93.832
			c0,8.291-6.681,15.006-14.921,15.006H20.51c-8.243,0-14.919-6.715-14.919-15.006V20.602c0-8.291,6.676-15.012,14.919-15.012h2.302
			l2.275-2.236H20.51c-4.589,0-8.896,1.795-12.136,5.057c-3.24,3.256-5.018,7.586-5.018,12.191v93.832
			c0,9.508,7.696,17.244,17.153,17.244h499.12c9.457,0,17.154-7.736,17.154-17.244V20.602
			C536.784,11.092,529.087,3.354,519.63,3.354z"/>
	</g>
</g>
</svg>
